<?xml version="1.0" standalone="no"?>
<!DOCTYPE svg PUBLIC "-//W3C//DTD SVG 20010904//EN"
 "http://www.w3.org/TR/2001/REC-SVG-20010904/DTD/svg10.dtd">
<svg version="1.0" xmlns="http://www.w3.org/2000/svg"
 width="1125.000000pt" height="1125.000000pt" viewBox="0 0 1125.000000 1125.000000"
 preserveAspectRatio="xMidYMid meet">

<g transform="translate(0.000000,1125.000000) scale(0.100000,-0.100000)"
fill="#000000" stroke="none">
<path d="M0 5625 l0 -5625 5625 0 5625 0 0 5625 0 5625 -5625 0 -5625 0 0
-5625z m5691 4807 l46 -127 137 -3 c75 -1 136 -6 136 -10 0 -7 -177 -152 -211
-172 -8 -6 1 -46 36 -149 26 -78 45 -144 44 -146 -2 -1 -53 33 -114 77 -60 44
-116 82 -122 85 -7 3 -65 -34 -128 -82 -64 -48 -118 -86 -120 -84 -2 2 6 31
17 64 29 85 70 227 66 229 -2 2 -46 36 -98 77 -52 42 -104 80 -115 86 -31 18
-6 22 140 25 l130 3 43 120 c24 66 46 126 48 134 7 23 16 6 65 -127z m-902
-249 l22 -73 85 0 c46 0 84 -3 84 -7 0 -5 -15 -18 -33 -31 -17 -12 -47 -35
-64 -50 l-33 -27 25 -79 c14 -43 24 -81 21 -83 -2 -2 -34 18 -71 45 l-68 50
-61 -47 c-34 -25 -64 -50 -68 -56 -4 -5 -10 -7 -13 -3 -4 3 6 43 21 88 l28 82
-30 27 c-16 14 -47 40 -69 58 l-40 32 70 2 c39 1 77 1 86 0 13 -1 23 16 38 66
31 99 31 97 39 87 5 -5 18 -42 31 -81z m1771 20 c12 -38 27 -73 32 -80 6 -7
44 -13 96 -15 l86 -3 -72 -53 c-40 -30 -72 -57 -72 -60 0 -4 11 -42 24 -84 14
-43 21 -78 17 -78 -5 0 -38 23 -75 51 l-67 52 -27 -24 c-63 -57 -112 -90 -112
-76 0 8 12 49 26 92 14 42 22 80 17 84 -4 4 -34 26 -65 50 -32 24 -58 48 -58
53 0 6 32 9 81 7 l82 -4 17 50 c26 73 39 105 43 105 3 0 14 -30 27 -67z m938
-675 c9 -9 12 -112 12 -400 l0 -388 -1885 0 -1885 0 0 381 c0 243 4 387 10
400 11 19 42 19 1873 19 1436 0 1866 -3 1875 -12z m-3958 -341 c0 -29 -4 -56
-8 -62 -4 -5 -45 -39 -92 -74 -361 -273 -719 -677 -930 -1049 -29 -51 -56 -95
-61 -98 -5 -3 -29 -2 -54 2 -57 8 -58 8 46 182 240 402 615 818 983 1089 54
40 102 70 107 67 5 -3 9 -29 9 -57z m4210 38 c7 -9 49 -43 94 -77 359 -271
716 -666 939 -1036 43 -71 81 -139 84 -151 5 -19 1 -21 -46 -21 -48 0 -53 3
-69 31 -46 84 -218 336 -292 427 -189 236 -369 417 -602 604 l-138 111 0 64
c0 64 7 75 30 48z m-4214 -409 c-3 -12 -20 -31 -37 -42 -69 -48 -250 -217
-361 -338 -115 -125 -263 -314 -367 -468 l-52 -78 -52 0 c-29 0 -62 3 -73 6
-21 6 -21 8 18 77 23 40 79 128 126 197 202 295 445 552 709 750 l78 58 8 -71
c5 -39 6 -80 3 -91z m4251 108 c188 -143 422 -369 554 -535 83 -106 186 -252
265 -381 40 -64 41 -66 20 -72 -11 -3 -46 -6 -76 -6 l-56 0 -82 123 c-45 67
-92 133 -104 147 -13 14 -78 86 -144 160 -121 134 -275 283 -383 370 l-56 46
-3 92 c-2 54 1 92 7 92 5 0 31 -16 58 -36z m-2897 -275 c310 -12 461 -23 440
-31 -8 -4 -53 -18 -100 -33 -315 -99 -606 -346 -780 -662 -228 -411 -237 -910
-25 -1334 198 -394 558 -676 978 -766 116 -25 457 -25 575 0 168 36 351 116
504 219 84 57 270 244 340 343 102 145 191 347 233 531 26 110 32 429 11 535
-23 115 -86 299 -135 397 -183 364 -519 649 -879 746 -48 13 -80 26 -72 29 40
15 422 29 948 34 l582 6 0 -1546 0 -1547 -35 0 -35 0 -1 483 c-1 265 -5 536
-9 602 l-6 120 -2 -92 c-1 -54 -6 -93 -12 -93 -5 0 -10 -24 -11 -52 -1 -42 -3
-48 -9 -28 -7 21 -8 22 -9 5 -1 -11 -20 -33 -41 -50 -71 -53 -77 -60 -94 -93
-9 -18 -27 -37 -40 -42 -14 -5 -30 -25 -40 -49 -9 -23 -23 -41 -31 -41 -8 0
-15 -4 -15 -9 0 -13 -61 -73 -76 -75 -14 -2 -64 -60 -64 -74 0 -6 -10 -12 -22
-14 -13 -2 -23 -7 -23 -13 0 -5 -11 -22 -25 -37 -39 -41 -50 -56 -50 -68 0 -6
-8 -14 -17 -17 -26 -10 -42 -34 -43 -64 0 -27 -32 -56 -87 -78 -33 -13 -51
-50 -30 -63 8 -5 3 -8 -13 -9 -61 -3 -65 -4 -65 -24 0 -12 -8 -21 -20 -24 -17
-3 -18 -1 -6 13 11 14 11 16 -3 16 -9 0 -16 -7 -16 -14 0 -16 -60 -66 -78 -66
-7 0 -12 -4 -12 -8 0 -26 -199 -31 -1442 -37 l-1288 -6 -2 1538 c-2 846 -2
1541 0 1546 5 11 850 8 1152 -4z m-1401 -139 c-135 -111 -384 -385 -488 -534
-28 -41 -51 -77 -51 -79 0 -3 8 -8 18 -10 9 -3 -7 -5 -35 -6 l-53 -1 53 74
c28 41 75 108 103 148 80 113 213 261 358 396 l131 123 3 -38 c3 -33 -1 -41
-39 -73z m2363 26 c383 -74 727 -321 921 -661 182 -320 223 -721 107 -1065
-64 -193 -167 -359 -313 -505 -344 -344 -807 -457 -1272 -309 -317 100 -609
346 -762 639 -237 457 -186 1002 132 1410 199 255 458 419 765 485 106 23 318
26 422 6z m1904 -53 c8 -3 14 -9 14 -14 0 -5 -9 -4 -20 3 -14 9 -20 22 -18 48
l1 35 4 -33 c3 -18 11 -36 19 -39z m79 -3 c3 -5 1 -10 -4 -10 -6 0 -11 5 -11
10 0 6 2 10 4 10 3 0 8 -4 11 -10z m-35 -24 c0 -3 -4 -8 -10 -11 -5 -3 -10 -1
-10 4 0 6 5 11 10 11 6 0 10 -2 10 -4z m60 -66 c0 -5 -2 -10 -4 -10 -3 0 -8 5
-11 10 -3 6 -1 10 4 10 6 0 11 -4 11 -10z m-4330 -317 l0 -187 -22 22 c-21 22
-22 24 -6 36 13 10 15 15 6 24 -8 8 -8 12 -1 12 7 0 11 39 11 113 2 167 2 167
7 167 3 0 5 -84 5 -187z m-212 -3 c-7 -11 -16 -20 -20 -20 -5 0 -3 9 4 20 7
11 16 20 20 20 5 0 3 -9 -4 -20z m-28 -51 c0 -6 -4 -7 -10 -4 -5 3 -10 11 -10
16 0 6 5 7 10 4 6 -3 10 -11 10 -16z m40 1 c0 -5 -5 -10 -11 -10 -5 0 -7 5 -4
10 3 6 8 10 11 10 2 0 4 -4 4 -10z m70 -14 c0 -3 -4 -8 -10 -11 -5 -3 -10 -1
-10 4 0 6 5 11 10 11 6 0 10 -2 10 -4z m90 -16 c0 -5 -4 -10 -10 -10 -5 0 -10
5 -10 10 0 6 5 10 10 10 6 0 10 -4 10 -10z m-160 -21 c0 -5 -9 -9 -20 -9 -32
0 -89 -27 -126 -60 -21 -18 -46 -30 -62 -30 -20 0 -23 3 -13 9 8 5 19 7 25 5
7 -3 27 11 45 30 19 20 39 32 44 29 6 -4 8 0 5 8 -4 11 5 14 35 15 23 1 43 6
45 13 4 13 22 5 22 -10z m95 -2 c18 -9 19 -9 6 6 -16 20 -3 22 21 3 10 -7 14
-17 10 -21 -4 -5 1 -5 11 -2 12 4 16 3 11 -4 -4 -6 -17 -8 -33 -3 -14 4 -44
10 -65 13 -22 3 -41 12 -43 18 -5 14 47 8 82 -10z m6243 -299 c-2 -40 -6 -72
-10 -70 -5 1 -386 2 -848 2 l-840 0 0 63 c0 35 3 67 6 70 4 4 387 7 851 7
l844 0 -3 -72z m-6300 -182 l2 -186 -905 0 -905 0 0 191 0 191 903 -5 902 -4
3 -187z m6300 -103 c-3 -162 -4 -168 -23 -163 -11 3 -392 5 -848 5 l-827 0 0
163 0 162 850 0 850 0 -2 -167z m-7150 -143 l852 0 0 -777 c0 -428 -3 -800 -6
-828 l-6 -50 -115 -1 c-96 -1 -113 1 -109 13 3 8 6 20 6 26 0 7 7 3 15 -7 13
-17 15 -17 15 -4 0 9 8 19 18 21 9 3 0 5 -20 6 -21 0 -38 -3 -38 -9 0 -6 -49
-10 -127 -10 -85 0 -123 -4 -113 -10 8 -5 31 -7 51 -4 22 4 39 2 43 -5 4 -6
19 -9 34 -5 19 4 23 3 12 -4 -9 -6 -305 -11 -742 -14 l-728 -4 0 839 0 840 53
-7 c28 -3 436 -6 905 -6z m7150 -782 c-3 -632 -4 -673 -20 -676 -15 -3 -18 4
-18 33 0 32 -3 36 -17 30 -39 -16 -141 -34 -196 -35 -32 0 -88 -4 -125 -9 -37
-6 -349 -12 -694 -15 l-628 -4 0 674 0 674 850 0 850 0 -2 -672z m-805 -728
l808 0 -3 -77 -3 -78 -847 -3 -848 -2 0 78 c0 43 3 82 8 86 4 4 23 5 42 2 19
-3 399 -6 843 -6z m1105 -1292 c-3 -986 -3 -993 -24 -1039 -26 -55 -61 -92
-117 -121 -34 -17 -68 -23 -182 -29 -77 -4 -1948 -8 -4157 -8 l-4017 -1 -57
21 c-32 12 -73 38 -94 59 -74 74 -70 18 -70 1122 l0 988 4361 0 4360 0 -3
-992z m-6218 -1553 c23 -20 26 -71 7 -96 -29 -38 -100 -53 -111 -23 -4 9 -5
18 -4 18 2 1 17 6 33 12 23 7 30 16 30 34 0 21 -5 26 -31 28 -29 3 -32 0 -37
-35 -4 -21 -7 -68 -7 -105 l0 -68 -29 0 -28 0 5 123 c3 70 9 125 15 129 22 14
137 1 157 -17z m232 -1 c10 -10 18 -29 18 -43 0 -32 -25 -71 -46 -71 -20 0
-17 -19 11 -65 32 -51 31 -55 -4 -55 -26 0 -32 7 -60 66 -17 36 -31 68 -31 69
0 2 12 5 26 7 59 7 58 68 -1 68 l-35 0 -1 -55 c-1 -30 -3 -59 -4 -65 -1 -5 -3
-28 -4 -50 -1 -37 -3 -40 -30 -40 l-29 0 5 118 c2 64 6 122 8 128 5 18 155 7
177 -12z m248 -1 c0 -22 -4 -23 -65 -23 l-65 0 0 -30 c0 -30 1 -30 55 -30 47
0 55 -3 55 -19 0 -23 -12 -28 -67 -26 -42 2 -43 1 -43 -32 l0 -33 60 0 c53 0
60 -2 60 -20 0 -19 -7 -20 -94 -20 l-93 0 4 118 c3 64 6 122 8 127 1 6 41 10
94 10 88 1 91 0 91 -22z m147 -49 c12 -38 22 -78 22 -88 1 -30 12 -12 47 77
l32 82 39 0 38 0 -1 -50 c-4 -225 -2 -205 -29 -205 -25 0 -25 1 -26 88 l0 87
-33 -85 c-31 -78 -36 -85 -63 -88 -29 -3 -30 -2 -53 85 l-24 88 -7 -45 c-4
-25 -8 -64 -8 -87 -1 -39 -3 -43 -27 -43 l-26 0 6 83 c14 178 12 172 54 171
37 -1 37 -2 59 -70z m295 -58 l-3 -126 -36 0 -36 0 7 46 c3 26 6 82 6 125 0
77 0 78 28 81 15 2 29 3 32 2 3 -1 4 -59 2 -128z m108 35 c0 -105 7 -121 51
-121 44 0 57 22 64 107 3 43 7 85 8 93 2 13 10 15 49 11 17 -2 3 -187 -17
-217 -30 -46 -142 -54 -196 -14 -23 18 -24 23 -21 121 2 57 5 105 7 108 2 3
15 7 29 7 l26 2 0 -97z m337 23 c12 -38 22 -78 22 -88 1 -30 12 -12 47 76 30
77 34 82 63 83 17 1 35 -1 40 -4 5 -4 7 -56 4 -129 -6 -120 -6 -122 -29 -122
-23 0 -24 2 -25 88 l0 87 -33 -85 c-31 -78 -36 -85 -63 -88 -29 -3 -30 -2 -53
85 l-24 88 -7 -45 c-4 -25 -8 -64 -8 -87 -1 -40 -3 -43 -27 -43 l-27 0 7 83
c4 45 10 103 13 130 l6 47 36 -3 c35 -4 36 -6 58 -73z m451 70 c34 -10 29 -43
-7 -42 -61 2 -66 -21 -14 -82 31 -36 38 -40 43 -25 8 22 39 29 47 9 3 -7 1
-27 -5 -43 -8 -24 -7 -32 11 -50 l21 -21 -36 0 c-20 0 -39 4 -42 9 -4 5 -19 3
-37 -6 -94 -47 -185 56 -111 126 21 19 27 32 22 46 -20 57 35 98 108 79z m412
-21 c0 -22 -4 -23 -65 -23 l-65 0 0 -30 c0 -30 1 -30 55 -30 48 0 55 -2 55
-20 0 -11 -6 -21 -12 -21 -7 -1 -22 -3 -33 -4 -11 -1 -30 -3 -42 -3 -18 -2
-23 -8 -23 -32 l0 -30 60 0 c53 0 60 -2 60 -20 0 -19 -7 -20 -94 -20 l-93 0 4
118 c3 64 6 122 8 127 2 7 39 11 94 11 88 -1 91 -2 91 -23z m102 -85 l-4 -108
56 0 c49 0 56 -2 56 -20 0 -19 -7 -20 -89 -20 l-89 0 5 118 c2 64 6 122 8 127
1 6 16 11 31 10 l29 0 -3 -107z m328 85 c0 -22 -4 -23 -65 -23 l-65 0 0 -30
c0 -30 1 -30 55 -30 48 0 55 -2 55 -20 0 -11 -6 -20 -12 -21 -7 -1 -31 -2 -53
-3 -37 -1 -40 -3 -43 -33 l-3 -33 60 0 c54 0 61 -2 61 -20 0 -19 -7 -20 -96
-20 l-97 0 7 46 c3 26 6 82 6 125 0 89 -7 84 112 84 74 0 78 -1 78 -22z m248
21 c14 -4 22 -14 22 -28 0 -20 -4 -21 -65 -18 -59 3 -66 2 -90 -24 -18 -19
-25 -38 -25 -65 0 -54 27 -79 85 -79 45 0 45 0 45 35 0 28 -4 35 -20 35 -13 0
-20 7 -20 20 0 17 7 20 50 20 l51 0 -3 -72 -3 -73 -56 -8 c-58 -9 -119 1 -152
25 -27 20 -46 85 -36 125 18 82 120 132 217 107z m288 -120 c24 -65 44 -122
44 -126 0 -5 -13 -8 -29 -8 -26 0 -31 5 -43 43 -14 41 -16 42 -61 45 -46 3
-47 3 -69 -42 -20 -41 -26 -46 -56 -46 l-34 0 62 118 c34 64 68 122 75 127 7
6 25 10 40 10 26 -2 30 -9 71 -121z m217 27 c48 -79 52 -84 55 -56 12 154 12
153 38 153 23 0 24 -4 24 -62 0 -33 -3 -91 -7 -128 l-6 -68 -33 0 c-32 0 -38
6 -94 93 l-60 92 0 -92 0 -93 -28 0 -28 0 4 123 c3 67 9 125 13 128 5 3 23 4
39 1 25 -4 38 -18 83 -91z m365 71 c3 -19 -1 -22 -36 -22 -49 0 -52 -6 -52
-121 l0 -89 -31 0 -31 0 4 105 4 105 -38 0 c-33 0 -38 3 -38 23 0 23 1 24 108
22 101 -2 107 -3 110 -23z m212 1 c0 -22 -4 -23 -65 -23 l-65 0 0 -30 c0 -30
1 -30 55 -30 48 0 55 -2 55 -20 0 -11 -6 -21 -12 -21 -7 -1 -22 -3 -33 -4 -11
-1 -30 -3 -42 -3 -18 -2 -23 -8 -23 -32 l0 -30 60 0 c53 0 60 -2 60 -20 0 -19
-7 -20 -96 -20 l-97 0 7 38 c3 20 6 76 6 124 0 100 -6 95 112 94 74 -1 78 -2
78 -23z m-1930 -408 c186 -41 338 -118 461 -233 77 -72 181 -206 226 -290 177
-332 143 -768 -83 -1058 -47 -61 -60 -63 -20 -3 76 112 167 313 166 368 0 9
-11 -15 -25 -54 -34 -97 -41 -111 -92 -173 l-26 -34 -14 25 c-7 14 -22 29 -33
32 -11 4 -18 10 -15 15 3 5 -3 16 -12 26 -17 17 -17 18 0 11 15 -5 17 -3 12
12 -3 10 1 38 9 62 115 338 39 702 -194 938 -183 184 -418 259 -697 220 -291
-40 -530 -232 -631 -508 -119 -326 -38 -668 217 -921 78 -78 113 -105 188
-143 127 -66 229 -90 368 -90 234 1 413 85 591 277 49 52 90 93 92 91 9 -9
-58 -104 -113 -160 -207 -211 -501 -293 -789 -220 -72 18 -197 76 -245 112
-35 27 -108 42 -94 20 4 -7 -5 -4 -21 6 -28 19 -28 19 -21 -3 5 -16 3 -21 -6
-18 -8 3 -19 -2 -26 -11 -8 -11 -12 -12 -13 -3 0 14 -26 16 -35 2 -3 -6 1 -7
10 -4 10 4 14 2 10 -8 -19 -48 255 -204 435 -248 41 -10 63 -19 49 -19 -87 -3
-296 78 -416 160 -347 239 -516 652 -433 1059 85 416 450 736 895 784 74 8
250 -2 325 -19z m11 -231 c208 -74 344 -202 418 -393 60 -154 79 -370 45 -509
-52 -213 -196 -405 -369 -492 -208 -105 -410 -105 -620 -1 -194 96 -326 256
-387 468 -30 105 -32 324 -4 423 44 151 139 309 230 381 187 150 470 201 687
123z m-1651 22 c0 -7 -122 -88 -126 -83 -10 10 20 46 43 52 13 3 26 12 29 20
5 13 54 23 54 11z m3040 -86 c0 -5 -2 -10 -4 -10 -3 0 -8 5 -11 10 -3 6 -1 10
4 10 6 0 11 -4 11 -10z m-156 -29 c-43 -31 -49 -32 -39 -2 3 12 17 21 33 24
15 2 31 5 36 6 5 0 -9 -12 -30 -28z m2012 -10 c10 8 14 8 14 0 0 -15 18 -14
23 2 2 6 2 -1 -1 -18 -5 -37 -10 -42 -42 -47 -24 -3 -25 0 -27 52 -2 48 -1 52
8 27 9 -22 14 -26 25 -16z m-6936 10 c0 -3 -24 -21 -53 -40 -28 -19 -69 -46
-90 -59 -20 -14 -38 -23 -40 -21 -1 2 0 27 4 54 3 28 7 43 8 35 1 -13 2 -13
11 0 9 13 11 13 20 0 6 -10 10 -11 10 -2 0 6 7 12 15 12 8 0 15 4 15 9 0 5 15
8 33 7 19 0 31 4 30 10 -1 7 6 10 17 7 11 -3 20 -8 20 -12z m1263 -237 c50
-17 90 -59 102 -106 9 -36 -11 -93 -41 -117 -24 -19 -25 -21 -9 -45 43 -65
-38 -166 -134 -166 -22 0 -37 10 -60 38 -39 46 -37 68 4 64 89 -8 90 -8 93 17
7 44 -6 71 -34 71 -23 0 -25 3 -22 43 l3 42 47 -3 c44 -3 48 -1 54 23 11 45
-43 84 -73 54 -14 -14 -79 -3 -86 14 -7 19 16 58 44 73 32 18 56 17 112 -2z
m4580 -21 c7 -36 5 -38 -48 -53 -52 -15 -52 -2 1 -169 19 -58 33 -105 31 -106
-42 -15 -71 -24 -73 -22 -1 1 -21 59 -43 128 l-41 126 -40 -10 c-22 -6 -41 -9
-44 -6 -2 2 -6 20 -8 39 l-3 34 115 32 c144 40 146 41 153 7z m-367 -88 c31
-20 30 -40 -2 -61 -24 -16 -27 -16 -55 0 -36 21 -74 15 -90 -15 -16 -31 0 -41
78 -46 87 -6 120 -19 138 -54 35 -67 6 -142 -67 -178 -57 -27 -113 -27 -162 2
-47 26 -48 34 -13 61 24 17 29 18 52 6 31 -17 90 -17 110 0 8 7 15 25 15 40 0
32 -18 40 -98 40 -56 0 -83 10 -119 43 -46 42 -17 143 50 173 39 18 128 12
163 -11z m-3753 -35 c38 -26 72 -74 62 -90 -10 -16 -79 -32 -84 -19 -20 59
-121 66 -121 8 0 -18 9 -22 67 -34 35 -7 79 -52 89 -91 10 -41 -4 -95 -32
-125 -96 -100 -274 -24 -274 116 0 28 8 44 31 67 25 26 30 37 25 61 -8 42 20
94 63 118 49 26 127 21 174 -11z m413 -125 c28 -22 74 -89 74 -110 0 -3 -19
-5 -43 -5 -34 0 -48 6 -71 31 -38 40 -79 37 -114 -8 l-25 -33 49 0 c60 0 103
-24 134 -75 22 -35 22 -42 11 -84 -18 -69 -48 -94 -120 -99 -49 -4 -66 0 -95
17 -41 26 -71 71 -80 123 -8 45 17 161 45 206 44 73 164 91 235 37z m2924 0
c118 -61 133 -222 29 -309 -54 -46 -96 -59 -166 -53 -113 9 -168 65 -167 172
0 93 50 169 134 204 34 15 130 7 170 -14z m-1673 -1161 c-3 -3 -12 -4 -19 -1
-8 3 -5 6 6 6 11 1 17 -2 13 -5z m61 -1 c-10 -2 -26 -2 -35 0 -10 3 -2 5 17 5
19 0 27 -2 18 -5z"/>
<path d="M3846 9414 c-9 -8 -16 -20 -16 -25 0 -5 698 -9 1797 -9 l1796 0 -23
25 -23 25 -1758 0 c-1584 0 -1759 -2 -1773 -16z"/>
<path d="M5585 9308 c-42 -15 -108 -62 -139 -98 -14 -17 -33 -56 -42 -87 -15
-52 -15 -60 1 -119 55 -205 297 -264 435 -107 50 58 75 133 65 203 -20 143
-191 254 -320 208z m118 -82 c51 -21 87 -70 87 -117 0 -76 -92 -160 -175 -161
-24 -1 -42 -5 -39 -10 13 -20 -25 -5 -48 20 -72 76 -43 213 54 261 50 25 76
26 121 7z"/>
<path d="M6374 9247 c-2 -7 -3 -91 -2 -187 l3 -175 368 -3 367 -2 0 190 0 190
-365 0 c-289 0 -367 -3 -371 -13z m124 -102 l4 -30 -21 22 c-26 27 -27 46 -3
41 11 -2 18 -14 20 -33z m0 -59 c-5 -32 -42 -28 -46 5 -3 24 0 26 23 21 20 -3
25 -10 23 -26z m0 -110 c-2 -13 -12 -22 -25 -24 -18 -3 -23 1 -23 20 0 13 5
29 12 36 16 16 40 -5 36 -32z m121 25 c16 -11 7 -47 -15 -55 -32 -12 -48 26
-22 52 14 14 19 15 37 3z m379 -24 c3 -22 -1 -27 -18 -27 -23 0 -35 22 -26 46
10 25 41 12 44 -19z m-244 14 c11 -17 -6 -41 -29 -41 -23 0 -40 24 -29 41 3 5
16 9 29 9 13 0 26 -4 29 -9z m119 3 c11 -12 -13 -44 -33 -44 -20 0 -28 29 -13
43 8 9 38 9 46 1z"/>
<path d="M4160 9146 c0 -154 -18 -146 330 -146 272 0 278 0 311 23 l34 23 0
99 0 100 -337 3 -338 2 0 -104z"/>
<path d="M7250 9183 c-13 -10 -20 -25 -20 -49 0 -28 5 -36 27 -45 33 -12 80 4
88 33 15 46 -53 90 -95 61z"/>
<path d="M6043 9154 c-7 -3 -13 -17 -13 -31 0 -23 3 -25 31 -19 17 3 58 6 91
6 44 0 60 4 65 16 3 9 1 19 -5 23 -14 8 -152 12 -169 5z"/>
<path d="M6030 9025 c0 -24 2 -25 68 -25 86 0 112 7 112 31 0 17 -9 19 -90 19
-89 0 -90 0 -90 -25z"/>
<path d="M7243 8968 c-20 -26 -22 -48 -4 -69 44 -55 135 3 94 60 -16 24 -74
29 -90 9z"/>
<path d="M6030 8925 l0 -26 93 3 c84 3 92 5 92 23 0 18 -8 20 -92 23 l-93 3 0
-26z"/>
<path d="M5485 8254 c-156 -41 -325 -116 -395 -174 -19 -16 -56 -46 -81 -67
-26 -21 -53 -48 -59 -60 -7 -12 -17 -20 -22 -17 -4 3 -8 1 -8 -4 0 -5 -14 -23
-30 -41 -97 -101 -203 -339 -215 -482 -25 -309 22 -535 154 -735 104 -158 265
-299 429 -375 429 -202 944 -66 1234 325 53 72 126 205 143 264 6 22 5 23 -15
12 -12 -7 -61 -13 -109 -13 -80 -2 -91 0 -162 35 -148 73 -230 188 -251 354
-10 76 -9 100 6 164 22 101 58 168 124 235 73 74 148 110 229 110 l62 0 -17
27 c-38 59 -131 163 -195 216 -110 93 -257 171 -402 212 -41 12 -384 23 -420
14z m353 -255 c-2 -6 -111 -139 -243 -295 l-240 -284 -203 0 -204 0 7 28 c8
32 69 155 98 197 118 170 322 311 502 349 85 18 288 21 283 5z m-48 -566 c-12
-16 -66 -76 -121 -135 -54 -58 -99 -109 -99 -113 0 -3 13 3 29 14 33 24 45 27
38 9 -3 -8 4 -13 19 -13 13 0 24 4 24 9 0 5 6 4 13 -1 19 -16 66 -21 70 -9 2
6 7 8 11 5 7 -7 -94 -127 -278 -329 -73 -80 -165 -182 -206 -228 l-73 -83 -31
37 c-48 58 -127 176 -124 184 2 4 59 58 128 120 69 62 170 155 225 205 278
256 388 355 392 355 2 0 -5 -12 -17 -27z m528 -671 l42 -38 -25 -34 c-43 -59
-137 -150 -197 -191 -76 -52 -212 -119 -252 -125 -28 -4 -35 1 -70 47 -31 41
-36 53 -25 60 8 5 19 9 25 9 6 0 44 14 84 30 106 44 230 130 302 211 34 38 65
69 68 69 3 -1 24 -18 48 -38z"/>
<path d="M6694 6565 c-9 -14 -15 -28 -12 -30 2 -2 12 9 22 25 21 36 13 40 -10
5z"/>
<path d="M1607 7583 c-27 -27 17 -28 868 -28 481 0 875 3 875 7 0 26 -76 28
-888 28 -467 0 -852 -3 -855 -7z"/>
<path d="M1744 7486 c-3 -7 -4 -33 -2 -57 l3 -44 138 -3 137 -3 0 61 0 60
-135 0 c-106 0 -137 -3 -141 -14z"/>
<path d="M2880 7440 l0 -60 145 0 145 0 0 60 0 60 -145 0 -145 0 0 -60z"/>
<path d="M2160 7460 c-25 -25 -25 -45 1 -71 27 -27 69 -22 88 12 13 24 13 29
-2 53 -21 32 -59 34 -87 6z m58 -48 c3 -19 -1 -23 -15 -20 -10 2 -19 14 -21
26 -3 19 1 23 15 20 10 -2 19 -14 21 -26z"/>
<path d="M2437 7467 c-29 -20 -26 -66 5 -90 25 -19 28 -19 52 -4 33 22 41 52
22 82 -18 27 -52 32 -79 12z m43 -42 c7 -8 10 -21 6 -30 -8 -22 -36 -6 -36 21
0 27 12 31 30 9z"/>
<path d="M2690 7458 c-24 -26 -25 -37 -4 -66 30 -44 104 -16 104 40 0 46 -65
63 -100 26z m52 -60 c-16 -16 -37 4 -28 28 6 16 8 16 23 1 13 -13 15 -19 5
-29z"/>
<path d="M3232 7463 c4 -22 38 -30 49 -12 11 19 2 29 -27 29 -19 0 -25 -5 -22
-17z"/>
<path d="M3247 7403 c-14 -13 -6 -33 13 -33 13 0 20 7 20 20 0 19 -20 27 -33
13z"/>
<path d="M8797 7490 c-22 -14 -47 -63 -47 -94 0 -14 14 -40 34 -60 45 -48 94
-50 138 -6 27 28 30 36 25 77 -3 26 -13 54 -25 65 -23 23 -98 34 -125 18z m91
-62 c5 -39 -14 -68 -44 -68 -36 0 -53 41 -30 75 24 36 70 32 74 -7z"/>
<path d="M8666 7481 c-4 -7 -5 -15 -2 -18 9 -9 19 4 14 18 -4 11 -6 11 -12 0z"/>
<path d="M8710 7471 c-5 -11 -10 -26 -10 -34 0 -8 -9 -17 -20 -20 -11 -3 -20
-12 -20 -21 0 -28 37 0 60 44 11 22 20 42 20 45 0 13 -20 3 -30 -14z"/>
<path d="M9000 7471 c0 -5 -3 -18 -7 -28 -6 -16 -5 -16 10 -4 10 8 21 10 25 6
4 -4 1 -10 -6 -12 -7 -3 -17 -13 -22 -23 -9 -16 -7 -17 15 -6 39 18 31 76 -11
76 -2 0 -4 -4 -4 -9z"/>
<path d="M9124 7416 c-3 -8 -4 -29 -2 -48 l3 -33 155 -8 c201 -10 200 -10 200
53 l0 50 -175 0 c-142 0 -177 -3 -181 -14z m306 -41 c0 -20 -5 -25 -25 -25
-43 0 -31 46 13 49 6 1 12 -10 12 -24z m-160 -4 c0 -11 -26 -22 -34 -14 -12
12 -5 23 14 23 11 0 20 -4 20 -9z"/>
<path d="M8103 7393 c-31 -4 -33 -7 -33 -43 0 -25 5 -40 16 -44 9 -3 128 -6
265 -6 l249 0 0 50 0 50 -232 -2 c-128 0 -248 -3 -265 -5z"/>
<path d="M8667 7336 c-7 -19 1 -26 30 -26 16 0 23 6 23 20 0 14 -7 20 -24 20
-13 0 -26 -6 -29 -14z"/>
<path d="M9000 7325 c0 -8 9 -15 20 -15 11 0 20 7 20 15 0 8 -9 15 -20 15 -11
0 -20 -7 -20 -15z"/>
<path d="M2380 7194 c-245 -43 -417 -166 -515 -369 -50 -104 -69 -185 -68
-295 1 -116 21 -208 67 -299 94 -186 260 -318 467 -372 116 -30 269 -24 384
15 283 96 449 316 462 611 4 91 1 123 -15 182 -69 245 -262 442 -497 506 -67
18 -232 30 -285 21z m270 -70 c184 -55 329 -189 402 -369 31 -77 33 -86 33
-220 0 -121 -3 -148 -22 -199 -94 -250 -296 -398 -563 -413 -179 -11 -342 51
-470 177 -155 153 -215 370 -160 584 29 115 73 189 165 282 92 93 185 145 300
169 86 18 237 13 315 -11z"/>
<path d="M2361 7039 c-71 -14 -186 -74 -242 -126 -119 -111 -174 -237 -173
-393 1 -83 5 -105 33 -171 40 -97 109 -182 196 -241 91 -64 161 -88 265 -95
154 -9 281 37 401 145 63 58 121 137 133 182 3 14 3 19 0 13 -3 -7 -21 -13
-39 -13 l-33 0 -4 223 c-3 187 -1 224 11 235 13 11 5 23 -59 85 -144 140 -308
192 -489 156z m139 -122 c0 -10 -181 -230 -234 -285 -18 -19 -202 -19 -198 0
17 78 124 203 211 248 75 38 221 63 221 37z m333 -352 c-1 -103 -3 -188 -5
-191 -3 -2 -20 6 -39 19 -74 49 -102 174 -58 264 19 40 87 108 97 98 3 -3 5
-88 5 -190z m-441 -22 c-17 -21 -57 -64 -90 -97 -40 -39 -58 -64 -54 -74 4
-11 1 -14 -11 -9 -9 3 -19 1 -23 -5 -4 -6 -3 -8 4 -4 6 3 13 2 17 -4 10 -16
25 -12 25 7 0 13 3 14 12 5 8 -8 8 -15 -2 -27 -20 -25 -3 -17 25 11 14 14 28
24 31 21 2 -2 -24 -35 -58 -72 l-63 -67 -44 52 c-24 28 -40 55 -35 59 307 263
322 274 266 204z m399 -260 c16 -10 28 -22 26 -28 -8 -22 -123 -105 -183 -131
-62 -26 -65 -26 -84 -9 -23 21 -27 55 -5 55 28 0 125 53 168 91 23 21 44 38
45 39 2 0 17 -8 33 -17z"/>
<path d="M3061 6434 c0 -11 3 -14 6 -6 3 7 2 16 -1 19 -3 4 -6 -2 -5 -13z"/>
<path d="M2447 5743 l-718 -3 3 -28 3 -27 723 -3 722 -2 0 35 c0 19 -3 34 -7
33 -5 -2 -331 -4 -726 -5z"/>
<path d="M8675 6998 c-68 -13 -179 -68 -244 -120 -62 -51 -133 -153 -162 -235
-26 -72 -36 -228 -20 -303 21 -96 76 -196 150 -270 311 -311 839 -172 937 247
20 84 14 235 -11 308 -25 72 -93 171 -162 236 -129 123 -304 172 -488 137z
m243 -58 c118 -33 195 -89 264 -195 60 -92 81 -174 76 -303 -3 -93 -8 -116
-35 -177 -40 -90 -107 -165 -192 -214 -84 -50 -156 -71 -244 -71 -275 0 -497
214 -497 479 0 177 82 329 230 427 104 69 265 91 398 54z"/>
<path d="M8675 6843 c-157 -57 -257 -172 -287 -332 -26 -141 68 -321 203 -388
166 -82 326 -61 456 60 169 159 175 375 15 548 -74 80 -159 121 -262 126 -54
3 -89 -1 -125 -14z m163 -89 c13 -4 22 -10 20 -15 -2 -4 -52 -60 -111 -123
l-109 -116 -84 0 c-98 0 -101 5 -55 85 73 127 220 200 339 169z m211 -189 c12
-25 21 -51 21 -58 0 -12 -97 -110 -230 -232 -101 -93 -102 -93 -167 -83 -62
10 -85 22 -77 42 8 20 408 373 425 375 4 1 16 -19 28 -44z"/>
<path d="M8888 6427 c-137 -119 -177 -157 -165 -157 6 0 32 22 182 155 127
112 140 124 133 125 -4 0 -71 -56 -150 -123z"/>
<path d="M8025 6981 c-49 -10 -42 -35 22 -75 92 -57 152 -60 231 -9 41 27 49
44 36 77 -5 14 -26 16 -133 15 -69 -1 -139 -4 -156 -8z m195 -61 c0 -23 -80
-26 -88 -2 -2 8 10 12 42 12 25 0 46 -4 46 -10z"/>
<path d="M9273 6979 c-21 -21 -13 -42 29 -78 33 -29 49 -36 98 -39 49 -4 66 0
109 23 27 15 60 38 71 50 l22 23 -24 13 c-33 19 -288 25 -305 8z m171 -55 c25
-9 19 -22 -13 -29 -30 -6 -71 8 -71 25 0 11 59 14 84 4z"/>
<path d="M1575 5255 c-53 -18 -92 -67 -102 -124 -4 -25 -8 -395 -8 -821 0
-757 0 -776 20 -808 12 -20 39 -42 65 -55 l45 -21 3955 -3 c2175 -2 3983 0
4017 3 71 6 117 32 146 81 18 31 19 66 17 859 0 627 -4 830 -13 845 -7 11 -30
28 -52 39 -39 19 -100 19 -4045 19 -3410 0 -4011 -2 -4045 -14z m2555 -314
c63 -32 99 -68 126 -126 22 -46 24 -63 24 -203 l0 -153 -127 3 -128 3 -3 120
c-2 108 -4 122 -23 138 -27 22 -35 21 -59 -3 -19 -19 -20 -33 -20 -385 0 -352
1 -366 20 -385 24 -24 30 -24 56 -6 17 13 20 31 24 158 l5 143 130 0 130 0 0
-160 c-1 -225 -30 -299 -141 -355 -67 -33 -231 -41 -301 -15 -60 23 -118 76
-151 139 l-27 51 0 420 0 420 28 60 c35 75 68 111 132 142 45 21 61 24 155 21
86 -3 113 -7 150 -27z m1965 2 c57 -30 94 -69 124 -133 l26 -55 0 -405 c0
-362 -2 -410 -18 -456 -24 -70 -70 -129 -125 -161 -40 -24 -60 -28 -142 -31
-53 -2 -114 1 -137 7 -68 18 -124 68 -163 145 l-35 69 0 421 0 421 29 59 c20
40 42 68 73 90 66 47 105 56 223 53 84 -2 113 -7 145 -24z m-3695 -108 l0
-125 -125 0 -125 0 0 -115 0 -115 120 0 121 0 -3 -117 -3 -118 -117 -3 -118
-3 0 -139 0 -139 133 -3 132 -3 0 -120 0 -120 -262 -3 -263 -2 0 625 0 625
255 0 255 0 0 -125z m350 -395 l0 -519 128 -3 127 -3 3 -102 3 -103 -261 0
-260 0 0 625 0 625 130 0 130 0 0 -520z m830 395 l0 -125 -125 0 -125 0 0
-115 0 -115 120 0 120 0 0 -120 0 -120 -120 0 -120 0 0 -140 0 -139 133 -3
132 -3 3 -122 3 -123 -266 0 -265 0 0 625 0 625 255 0 255 0 0 -125z m1295 0
l0 -120 -72 -3 -73 -3 -2 -497 -3 -497 -132 -3 -133 -3 0 501 0 500 -70 0 -70
0 0 125 0 125 278 -2 277 -3 0 -120z m563 104 c84 -41 115 -121 116 -304 1
-141 -15 -198 -70 -243 l-34 -28 26 -15 c15 -8 35 -32 45 -54 17 -36 19 -71
19 -313 l0 -273 -127 3 -128 3 -2 265 c-3 256 -4 266 -24 283 -12 9 -30 17
-40 17 -18 0 -19 -12 -19 -285 l0 -286 -132 3 -133 3 -2 614 c-2 337 0 618 3
622 3 5 107 9 231 9 211 0 230 -2 271 -21z m1295 14 c3 -5 23 -152 47 -328 43
-331 50 -377 56 -360 4 12 31 202 70 493 l28 202 198 0 198 0 0 -625 0 -625
-120 0 -120 0 -1 383 c0 214 -4 373 -9 362 -4 -11 -20 -94 -34 -185 -14 -91
-40 -254 -57 -362 l-32 -198 -118 0 -117 0 -6 28 c-10 47 -104 605 -112 657
-18 127 -23 62 -23 -297 l-1 -388 -120 0 -120 0 0 625 0 625 194 0 c107 0 197
-3 199 -7z m1222 -35 c3 -24 14 -137 25 -253 23 -245 55 -579 75 -785 8 -80
15 -151 15 -157 0 -10 -31 -13 -124 -13 l-124 0 -7 88 c-3 48 -8 93 -10 100
-3 8 -27 12 -75 12 l-70 0 0 -47 c0 -27 -3 -72 -6 -100 l-7 -53 -123 0 -124 0
0 38 c0 20 5 80 10 132 12 109 52 518 80 825 11 116 23 220 25 233 5 22 6 22
220 22 l214 0 6 -42z m683 21 c84 -41 114 -121 116 -304 1 -141 -15 -198 -70
-243 l-34 -28 26 -15 c15 -8 35 -32 45 -54 17 -36 19 -71 19 -312 l0 -273
-130 0 -130 0 0 269 c0 268 0 270 -22 285 -12 9 -30 16 -40 16 -17 0 -18 -19
-18 -285 l0 -286 -132 3 -133 3 -3 610 c-1 336 0 616 3 623 3 9 59 12 232 12
211 0 230 -2 271 -21z m712 -104 l0 -125 -75 0 -75 0 0 -500 0 -500 -130 0
-130 0 0 500 0 500 -75 0 -75 0 0 125 0 125 280 0 280 0 0 -125z"/>
<path d="M5900 4713 c-20 -26 -21 -33 -18 -391 3 -347 4 -364 22 -378 29 -20
43 -17 63 13 16 25 18 59 18 384 0 337 -1 358 -19 378 -25 28 -40 27 -66 -6z"/>
<path d="M5200 4616 c0 -61 4 -107 10 -111 20 -13 67 6 79 31 14 31 15 139 1
165 -8 14 -21 19 -50 19 l-40 0 0 -104z"/>
<path d="M7720 4630 c-1 -36 -9 -164 -19 -285 -10 -121 -16 -223 -14 -227 8
-16 83 -9 90 8 8 21 -38 546 -49 559 -4 5 -8 -20 -8 -55z"/>
<path d="M8400 4610 l0 -110 25 0 c14 0 37 11 50 25 22 21 25 33 25 90 0 88
-10 105 -60 105 l-40 0 0 -110z"/>
<path d="M5470 2740 c-6 -11 -8 -25 -4 -31 11 -18 48 -27 68 -17 17 9 16 12
-10 39 -33 34 -40 36 -54 9z"/>
<path d="M6846 2822 c-20 -39 -17 -45 17 -40 23 3 23 5 12 38 l-12 35 -17 -33z"/>
<path d="M5040 829 c0 -5 5 -7 10 -4 6 3 10 8 10 11 0 2 -4 4 -10 4 -5 0 -10
-5 -10 -11z"/>
<path d="M5070 820 c0 -5 5 -10 11 -10 5 0 7 5 4 10 -3 6 -8 10 -11 10 -2 0
-4 -4 -4 -10z"/>
<path d="M5577 2222 c-15 -2 -25 -8 -22 -13 4 -5 -2 -6 -11 -2 -14 5 -16 3
-11 -11 4 -9 3 -15 -2 -12 -12 8 -32 -45 -27 -72 14 -67 104 -119 152 -87 14
9 32 31 41 50 15 31 15 37 -1 78 -20 54 -59 77 -119 69z m60 -54 c30 -32 31
-34 18 -65 -8 -18 -20 -34 -27 -34 -77 -7 -111 58 -61 114 23 24 35 22 70 -15z"/>
<path d="M5725 2040 c-14 -22 10 -30 91 -30 77 0 84 2 84 20 0 18 -7 20 -84
20 -47 0 -88 -4 -91 -10z"/>
<path d="M6007 2043 c-12 -11 -8 -23 8 -23 8 0 15 7 15 15 0 16 -12 20 -23 8z"/>
<path d="M5203 2022 c-10 -7 -10 -14 0 -35 17 -37 51 -36 71 3 14 29 14 30 -9
30 -13 0 -29 2 -37 5 -7 3 -19 1 -25 -3z"/>
<path d="M5435 1910 c-52 -14 -102 -20 -192 -20 -68 0 -123 -3 -123 -7 1 -30
20 -35 114 -31 l96 4 -43 -27 c-85 -53 -161 -156 -191 -258 -20 -68 -21 -217
-2 -288 44 -165 179 -309 340 -363 177 -59 358 -25 510 94 106 83 165 185 190
329 19 107 9 201 -30 284 -30 64 -131 175 -174 193 -50 21 -24 30 81 30 92 0
99 1 99 20 0 19 -7 20 -139 20 -102 0 -150 4 -182 16 -71 26 -267 28 -354 4z
m340 -56 c150 -52 263 -182 296 -341 14 -70 3 -166 -32 -257 -17 -48 -68 -128
-54 -85 4 9 0 16 -8 16 -9 0 -13 -10 -11 -28 4 -32 -16 -56 -99 -118 -65 -49
-132 -72 -225 -79 -86 -6 -192 17 -265 56 -61 33 -146 118 -180 181 -141 259
-5 598 268 668 67 17 245 10 310 -13z"/>
<path d="M5489 1739 c-79 -28 -150 -94 -194 -181 -31 -64 -35 -79 -35 -153 0
-71 4 -90 30 -141 57 -114 162 -193 287 -215 66 -12 136 2 213 41 53 27 125
95 158 149 l30 48 -59 7 c-74 7 -102 26 -135 93 -28 56 -28 98 2 154 16 32 72
69 105 69 21 1 18 7 -32 53 -96 91 -242 121 -370 76z m151 -105 c0 -3 -35 -45
-77 -95 l-78 -89 -58 0 -58 0 22 40 c33 58 77 100 134 126 45 22 115 32 115
18z m-101 -271 c-74 -81 -79 -88 -68 -103 9 -13 10 -12 6 2 -3 9 2 22 10 30
15 11 16 11 10 -4 -7 -21 3 -24 21 -6 7 7 12 8 12 2 0 -6 -18 -27 -39 -47
l-40 -37 -20 29 c-12 16 -21 33 -20 38 1 11 141 133 154 133 5 0 -7 -17 -26
-37z m341 -120 c0 -38 -144 -140 -187 -131 -24 4 -23 32 2 37 26 5 120 65 142
91 21 24 43 26 43 3z"/>
<path d="M5882 1094 c-12 -13 -19 -24 -15 -24 10 1 53 36 53 44 0 12 -16 4
-38 -20z"/>
<path d="M3670 1550 c-25 -25 -25 -41 0 -68 27 -29 74 -29 94 0 9 12 16 28 16
35 0 22 -39 53 -65 53 -14 0 -34 -9 -45 -20z"/>
<path d="M4090 1429 c-16 -29 -5 -63 26 -79 22 -12 29 -12 52 1 34 19 39 48
12 77 -27 29 -75 30 -90 1z"/>
<path d="M7035 1576 c-34 -15 -75 -80 -75 -119 0 -43 18 -75 49 -92 37 -19 72
-19 116 -1 55 23 85 62 85 110 0 50 -21 83 -66 102 -41 17 -70 17 -109 0z"/>
</g>
</svg>
