<?xml version="1.0" standalone="no"?>
<!DOCTYPE svg PUBLIC "-//W3C//DTD SVG 20010904//EN"
 "http://www.w3.org/TR/2001/REC-SVG-20010904/DTD/svg10.dtd">
<svg version="1.0" xmlns="http://www.w3.org/2000/svg"
 width="1024.000000pt" height="1024.000000pt" viewBox="0 0 1024.000000 1024.000000"
 preserveAspectRatio="xMidYMid meet">

<g transform="translate(0.000000,1024.000000) scale(0.100000,-0.100000)"
fill="#000000" stroke="none">
<path d="M4870 9163 c-547 -37 -1078 -190 -1595 -457 -202 -105 -341 -191
-519 -321 -480 -352 -887 -812 -1177 -1330 -272 -486 -427 -972 -495 -1545
-22 -184 -30 -659 -15 -847 70 -859 386 -1612 965 -2297 344 -407 734 -722
1192 -963 513 -269 962 -411 1499 -475 149 -17 734 -17 875 0 520 65 866 169
1335 402 403 200 718 420 1035 725 159 153 229 229 354 385 432 537 684 1064
837 1746 122 546 115 1218 -17 1794 -162 703 -544 1395 -1071 1940 -178 185
-293 287 -478 425 -621 464 -1317 742 -2024 809 -148 14 -553 20 -701 9z m689
-325 c56 -236 156 -538 178 -538 13 0 -34 385 -57 470 -18 67 -13 97 23 124
89 67 244 75 362 17 116 -57 212 -182 231 -299 7 -47 -11 -86 -45 -97 -15 -4
-23 -21 -31 -63 -11 -60 -59 -192 -69 -192 -3 0 -12 -13 -18 -28 -34 -77 -192
-215 -245 -215 -19 0 -27 -5 -24 -13 3 -7 -2 -15 -10 -18 -18 -7 -18 -42 1
-96 28 -80 26 -84 -67 -98 -46 -7 -99 -15 -118 -17 -19 -2 -84 -13 -145 -24
-126 -24 -110 -30 -169 69 -65 111 -69 129 -72 325 -2 203 -20 326 -79 545
-48 177 -40 236 35 275 25 13 210 52 260 54 12 1 26 -41 59 -181z m-558 132
c32 -32 38 -80 9 -70 -8 3 -42 5 -75 6 -57 0 -60 1 -57 25 4 29 46 69 73 69
11 0 34 -13 50 -30z m-703 -90 c18 -39 65 -64 105 -56 35 7 77 42 77 64 0 35
158 -18 267 -89 69 -45 123 -100 123 -126 0 -14 -2 -14 -16 3 -8 10 -13 13 -9
7 4 -8 0 -13 -9 -13 -8 0 -16 5 -18 11 -2 6 -22 9 -46 7 l-43 -3 31 -33 c16
-18 35 -42 41 -53 5 -11 18 -19 27 -18 43 4 52 -4 12 -12 -25 -4 -280 -8 -567
-8 -425 -1 -523 1 -523 12 0 24 139 165 208 210 95 64 211 109 322 126 3 1 11
-13 18 -29z m2267 -116 c256 -72 417 -214 432 -383 6 -58 -18 -161 -37 -161
-4 0 -15 30 -23 68 -39 172 -100 260 -220 318 -80 38 -147 49 -235 36 -73 -10
-68 -16 -77 87 l-6 73 38 -6 c21 -4 79 -18 128 -32z m-3061 -160 c22 -8 10
-24 -19 -24 -27 0 -42 16 -23 23 19 8 24 8 42 1z m1401 -24 c3 -5 1 -10 -4
-10 -6 0 -11 5 -11 10 0 6 2 10 4 10 3 0 8 -4 11 -10z m123 -127 c3 -10 -15
-13 -70 -13 -92 0 -101 -5 -88 -50 6 -19 10 -36 10 -37 0 -2 -279 -3 -621 -3
l-621 0 7 27 c3 15 13 42 20 60 l14 33 672 -2 c527 -2 673 -6 677 -15z m-1750
-47 c63 -32 105 -78 141 -154 44 -94 55 -180 55 -402 0 -322 -15 -606 -21
-428 -2 33 -7 66 -11 72 -5 6 -15 40 -21 76 -19 101 -20 103 -47 96 -19 -5
-24 -2 -24 11 0 15 -2 16 -10 3 -7 -12 -11 -10 -20 10 -9 22 -10 20 -6 -15 6
-46 3 -38 -39 95 -38 123 -80 203 -140 275 -30 35 -51 66 -47 71 4 4 2 4 -5 0
-18 -10 -70 41 -84 82 -15 45 -4 118 23 158 50 73 166 96 256 50z m3970 -56
c47 -44 18 -77 -63 -72 -52 4 -55 5 -55 30 0 58 73 84 118 42z m-3575 -77 c-7
-2 -19 -2 -25 0 -7 3 -2 5 12 5 14 0 19 -2 13 -5z m510 0 c-79 -2 -207 -2
-285 0 -79 1 -15 3 142 3 157 0 221 -2 143 -3z m435 0 c-10 -2 -28 -2 -40 0
-13 2 -5 4 17 4 22 1 32 -1 23 -4z m2999 -179 c88 -44 165 -126 214 -228 45
-92 55 -148 28 -154 -11 -2 -21 9 -29 30 -21 53 -117 166 -182 214 -68 49
-109 64 -188 64 -33 0 -73 8 -99 20 -24 11 -55 20 -69 20 l-26 0 22 16 c87 60
228 68 329 18z m-4787 11 c112 -39 196 -165 230 -345 18 -93 40 -271 40 -319
l-1 -46 -15 28 c-25 46 -27 24 -3 -26 19 -38 20 -50 11 -69 -11 -22 -11 -21
-5 6 4 19 2 27 -5 22 -6 -3 -14 -1 -18 5 -5 8 -8 8 -14 -1 -5 -8 -9 -7 -13 5
-4 9 -3 13 3 10 6 -3 10 1 10 9 0 9 -4 16 -10 16 -5 0 -10 9 -10 20 0 23 -41
111 -49 105 -3 -1 -7 7 -7 18 -1 12 -5 33 -8 47 -3 14 -4 19 0 12 3 -6 9 -10
14 -7 4 3 6 -5 3 -17 -3 -13 -2 -20 2 -15 5 4 14 -5 21 -20 10 -23 13 -24 13
-8 1 26 -60 156 -70 149 -5 -3 -6 1 -4 8 9 22 -92 165 -143 204 l-46 35 -103
-3 -103 -3 0 25 c1 62 54 132 121 159 36 15 112 13 159 -4z m4390 -220 c147
-56 261 -134 371 -253 35 -38 79 -95 98 -126 42 -71 105 -240 121 -326 20
-104 18 -236 -3 -297 -24 -69 -34 -73 -35 -16 -2 104 -52 284 -112 403 -62
122 -187 275 -289 353 -31 23 -63 48 -71 56 -25 24 -159 83 -172 75 -6 -4 -8
-3 -5 3 4 6 0 14 -9 17 -33 13 -64 5 -96 -23 -53 -45 -75 -53 -121 -45 -23 4
-45 7 -49 6 -42 -11 110 153 185 198 39 24 69 20 187 -25z m-3100 18 c0 -2
-21 -34 -47 -71 l-48 -68 -42 24 -41 23 -26 -26 c-14 -13 -39 -46 -57 -72 -50
-75 -102 -143 -109 -143 -4 0 -15 15 -25 34 l-18 34 55 73 c30 41 72 99 92
129 21 30 45 58 54 62 18 7 212 8 212 1z m278 -59 c26 -37 74 -103 107 -146
33 -44 70 -93 82 -109 l22 -30 -1 31 c-1 17 -4 26 -8 20 -6 -9 -9 -9 -15 -1
-6 10 18 61 29 61 1 0 3 -14 4 -30 0 -17 4 -40 7 -51 6 -17 9 -19 16 -8 5 8 9
19 9 24 0 6 -5 3 -10 -5 -8 -12 -10 -11 -10 6 0 25 21 46 36 36 11 -7 34 -46
34 -56 0 -4 -18 -14 -40 -23 -35 -15 -40 -22 -40 -50 0 -39 -12 -48 -41 -31
-34 20 -73 67 -162 195 -96 138 -120 153 -166 109 -16 -15 -69 -88 -118 -162
-48 -73 -89 -127 -91 -119 -2 9 -8 13 -13 10 -4 -3 -32 10 -61 30 -55 36 -58
42 -13 25 19 -7 24 -7 19 2 -4 6 1 17 12 25 16 12 17 15 4 23 -8 5 -11 10 -6
10 5 0 3 7 -4 15 -19 23 -4 18 18 -5 l19 -21 40 48 c54 65 153 208 153 221 0
13 28 19 93 21 l47 1 48 -66z m327 16 c18 -25 64 -90 104 -145 l72 -100 -28
-3 c-15 -2 -33 -8 -40 -14 -12 -9 -36 20 -131 156 -43 62 -56 66 -96 27 l-33
-32 -35 43 c-43 53 -78 104 -78 112 0 4 53 5 117 4 l116 -3 32 -45z m-946 23
c-31 -38 -45 -48 -71 -49 -15 -1 -25 3 -22 7 3 5 0 9 -5 9 -6 0 -12 8 -12 18
-1 16 -2 16 -6 0 -2 -10 -9 -18 -14 -18 -6 0 -8 -4 -4 -9 3 -5 1 -12 -4 -15
-14 -9 -20 6 -11 29 5 13 2 24 -9 32 -13 10 2 12 78 13 87 0 92 -1 80 -17z
m1234 10 c-29 -2 -53 -9 -53 -14 0 -5 8 -9 17 -7 13 2 18 -4 18 -24 1 -16 -4
-28 -10 -28 -5 0 -24 -13 -41 -29 l-32 -30 -24 27 c-14 15 -33 39 -43 55 l-17
27 53 0 c66 0 60 9 -9 11 -28 1 -57 6 -64 10 -7 5 48 8 122 7 74 -1 111 -3 83
-5z m-1293 -97 c0 -3 -4 -8 -10 -11 -5 -3 -10 -1 -10 4 0 6 5 11 10 11 6 0 10
-2 10 -4z m-1310 -26 c22 -11 40 -24 40 -29 0 -10 -27 -8 -53 3 -19 9 -90 3
-119 -9 -31 -13 -20 14 15 35 41 25 68 25 117 0z m1543 -100 c-3 -10 -11 -25
-19 -31 -8 -6 -14 -19 -14 -29 0 -9 -7 -17 -14 -17 -17 0 -9 20 28 70 24 32
26 33 19 7z m394 -46 c24 -32 56 -81 73 -109 16 -27 40 -62 51 -77 25 -30 20
-38 -38 -71 -31 -17 -32 -17 -43 3 -6 11 -8 25 -5 31 4 5 2 15 -4 22 -6 8 -6
18 -1 27 8 13 10 12 10 -2 0 -10 4 -18 9 -18 15 0 23 18 11 25 -5 3 -10 11
-10 17 0 7 6 6 15 -2 19 -15 19 -10 2 24 -8 14 -17 23 -21 19 -3 -4 -24 4 -47
16 l-40 23 -45 -23 c-47 -26 -58 -53 -23 -62 15 -4 19 -2 15 9 -3 9 -1 12 4 9
19 -12 10 -42 -25 -81 -19 -21 -34 -33 -35 -27 0 9 -7 10 -25 3 -26 -10 -29
-7 -26 23 1 9 -3 17 -8 17 -6 0 -11 7 -11 16 0 9 5 12 12 8 6 -4 8 -3 4 4 -5
9 38 87 115 204 13 21 29 36 34 35 6 -2 29 -30 52 -63z m2192 -18 c-29 -50
-38 -55 -125 -71 -101 -19 -536 -90 -679 -110 -143 -20 -227 -33 -295 -45 -83
-15 -377 -57 -446 -64 l-62 -7 47 49 46 49 110 17 c61 9 178 28 260 41 83 13
292 45 465 70 173 26 392 59 485 75 94 15 180 28 192 29 l22 1 -20 -34z m346
-47 c99 -24 259 -101 345 -167 93 -71 202 -189 246 -267 54 -99 94 -220 103
-322 10 -109 3 -137 -20 -83 -16 36 -16 38 0 33 15 -6 15 -5 0 13 -16 19 -49
86 -49 99 0 20 -99 144 -175 221 -81 81 -262 193 -287 178 -6 -4 -8 -3 -5 3 7
11 -100 39 -110 29 -4 -3 1 -6 10 -6 17 0 97 -38 97 -47 0 -2 -3 -3 -7 -1 -98
47 -123 51 -320 56 -106 2 -193 5 -193 7 0 2 16 32 36 66 43 77 130 196 152
208 19 11 75 5 177 -20z m1315 -19 c24 -24 25 -38 5 -64 -15 -20 -15 -20 -16
0 0 10 -3 13 -6 6 -2 -6 -9 -9 -15 -6 -5 3 -30 -2 -54 -11 -25 -9 -48 -15 -51
-12 -12 13 9 77 30 92 30 21 83 19 107 -5z m-5269 -37 c13 -16 12 -17 -3 -4
-10 7 -18 15 -18 17 0 8 8 3 21 -13z m-731 -70 c0 -4 -26 -32 -58 -63 -133
-127 -213 -259 -246 -407 -31 -141 -13 -297 51 -435 38 -82 37 -115 -2 -78
-15 14 -21 28 -17 39 5 14 4 14 -11 2 -15 -12 -17 -12 -11 4 5 12 4 16 -3 12
-27 -17 -95 112 -119 226 -61 291 89 586 348 686 59 22 68 24 68 14z m820 -8
c0 -8 -2 -15 -4 -15 -2 0 -6 7 -10 15 -3 8 -1 15 4 15 6 0 10 -7 10 -15z m-11
-37 c22 -41 22 -42 2 -18 -29 34 -43 60 -33 60 4 0 19 -19 31 -42z m-307 -24
c141 -42 262 -146 323 -278 38 -81 41 -104 24 -172 -12 -48 -15 -50 -44 -30
-11 7 -46 22 -78 32 -36 11 -63 26 -69 39 -28 53 -102 125 -156 152 -50 25
-68 28 -149 28 -85 -1 -97 -4 -160 -35 -50 -26 -79 -50 -115 -94 -38 -48 -62
-66 -119 -93 -40 -18 -80 -33 -91 -33 -52 0 -46 111 14 228 37 73 143 179 216
215 52 27 131 54 177 61 49 7 170 -4 227 -20z m4368 -125 c0 -6 9 -8 20 -4 18
6 25 -2 21 -27 0 -4 9 -10 21 -13 15 -5 17 -9 8 -15 -9 -5 -27 3 -52 23 -38
32 -47 47 -28 47 6 0 10 -5 10 -11z m1333 -76 c70 -31 159 -123 200 -205 31
-61 29 -78 -6 -78 -15 0 -35 16 -59 48 -64 87 -193 152 -299 152 -45 0 -187
-36 -207 -52 -13 -11 -15 -8 -9 26 8 52 30 82 78 107 89 45 203 46 302 2z
m-3913 -408 l0 -395 -610 -2 c-335 -1 -634 -2 -662 -3 l-53 0 0 255 0 255 32
67 c49 105 142 183 248 209 17 4 258 7 537 8 l507 1 1 -395z m2432 358 c85
-40 151 -106 191 -191 l32 -67 3 -247 3 -248 -1280 0 -1281 0 0 395 0 395
1133 -2 1132 -3 67 -32z m273 17 c-4 -6 -1 -19 6 -28 12 -16 12 -16 -5 0 -16
14 -15 38 0 38 3 0 2 -5 -1 -10z m75 -24 c0 -2 -7 -7 -16 -10 -8 -3 -12 -2 -9
4 6 10 25 14 25 6z m-7 -33 c-7 -3 -13 -9 -13 -15 0 -6 7 -8 15 -4 8 3 14 0
12 -7 -1 -7 6 -11 15 -11 10 1 16 -2 13 -6 -3 -4 2 -10 10 -14 8 -3 15 -10 15
-15 0 -11 -79 39 -98 61 -8 10 -4 13 16 14 15 1 21 -1 15 -3z m-4645 -17 c23
-8 55 -25 72 -38 41 -30 90 -105 90 -138 0 -23 -7 -28 -65 -47 -54 -18 -65
-19 -65 -7 0 56 -63 101 -125 90 -40 -8 -74 -52 -76 -96 0 -14 -3 -19 -6 -12
-2 6 -12 12 -21 12 -9 0 -36 7 -59 16 -36 14 -43 21 -43 43 0 39 52 116 99
147 66 43 132 53 199 30z m4743 -83 c13 -16 12 -17 -3 -4 -10 7 -18 15 -18 17
0 8 8 3 21 -13z m44 -42 c-6 -5 -25 10 -25 20 0 5 6 4 14 -3 8 -7 12 -15 11
-17z m34 -235 c67 -113 95 -244 71 -330 -17 -60 -64 -114 -124 -142 -93 -43
-86 -67 -86 295 0 176 -3 328 -6 338 -10 32 110 -101 145 -161z m-5765 102
c25 -40 -43 -77 -78 -43 -9 9 -16 20 -16 25 0 5 7 16 16 25 20 20 63 16 78 -7z
m-23 -215 c12 -14 12 -16 -1 -12 -17 6 -52 -25 -42 -38 4 -4 -2 -1 -12 8 -15
14 -16 21 -7 38 14 25 43 27 62 4z m7124 -29 c17 -17 39 -57 49 -90 6 -20 3
-21 -111 -20 -96 0 -132 -4 -192 -23 -73 -22 -167 -77 -205 -120 -35 -38 -59
-23 -34 22 23 43 -55 -33 -94 -91 -48 -71 -49 -49 -3 47 63 131 188 233 335
272 86 24 232 25 255 3z m-6765 -134 c10 -19 10 -20 -9 -8 -11 6 -17 16 -15
20 8 12 12 10 24 -12z m-150 -108 c236 -68 429 -117 520 -132 l74 -13 -54 -27
c-30 -15 -96 -38 -147 -51 -50 -13 -89 -27 -86 -33 3 -5 1 -6 -4 -3 -6 4 -66
-4 -134 -17 -309 -59 -516 -35 -597 71 -15 20 -35 44 -44 54 -23 24 -22 54 1
104 22 48 58 83 97 95 66 21 192 5 374 -48z m1125 -32 c-10 -11 -26 -22 -36
-25 -11 -4 -17 -10 -14 -15 3 -5 0 -12 -6 -16 -8 -4 -9 -3 -5 4 12 20 -8 13
-39 -14 -24 -20 -26 -23 -6 -14 13 7 21 8 17 2 -3 -5 -27 -20 -53 -32 -26 -12
-52 -28 -58 -35 -29 -38 -208 -111 -292 -120 -27 -3 -64 -8 -83 -11 l-35 -6
47 30 c79 52 188 108 303 158 61 26 144 62 185 80 88 39 99 41 75 14z m4167
-37 c2 -5 2 -646 0 -1425 l-3 -1418 -862 0 c-706 0 -879 -3 -957 -15 -122 -19
-235 -19 -385 0 -98 12 -275 15 -952 15 l-833 0 0 1425 0 1425 1994 0 c1097 0
1996 -3 1998 -7z m442 -158 c13 -44 23 -81 22 -83 -2 -1 -56 15 -120 36 l-117
38 49 22 c28 13 67 39 88 60 45 42 40 46 78 -73z m1285 99 c44 -13 55 -21 67
-49 8 -19 14 -54 14 -79 0 -37 -3 -45 -22 -50 -42 -11 -53 -6 -78 35 -14 22
-39 51 -55 64 -39 29 -115 55 -162 55 -46 0 -37 9 24 26 66 18 149 17 212 -2z
m-7444 -106 c4 4 5 1 0 -7 -5 -9 0 -20 16 -34 l24 -19 -25 14 c-29 18 -56 54
-65 88 -5 19 -1 17 18 -12 13 -21 27 -35 32 -30z m1562 20 c22 -29 22 -48 1
-59 -17 -9 -23 -9 -26 1 -3 9 -6 9 -13 -1 -7 -12 -9 -11 -9 1 0 13 -1 13 -10
0 -8 -13 -11 -13 -19 -1 -5 7 -13 11 -19 7 -6 -4 -8 2 -5 14 11 41 78 66 100
38z m4873 2 c0 -5 -2 -10 -4 -10 -3 0 -8 5 -11 10 -3 6 -1 10 4 10 6 0 11 -4
11 -10z m-6365 -100 c3 -5 16 -11 28 -11 17 -1 18 -2 5 -6 -10 -2 -28 3 -40
11 -12 9 -17 16 -11 16 7 0 15 -4 18 -10z m1510 -205 c0 -20 -8 -20 -840 -23
-462 -1 -850 0 -862 3 -25 6 -31 30 -10 38 6 3 395 5 862 4 843 -2 850 -2 850
-22z m5280 -56 c150 -22 378 -98 514 -172 82 -44 211 -129 254 -166 35 -31 37
-36 36 -90 0 -31 -3 -64 -7 -73 -8 -19 -5 -21 -199 119 -235 169 -471 258
-754 283 -240 20 -444 -20 -724 -142 -49 -22 -96 -42 -103 -45 -10 -4 -12 8
-10 53 l3 58 60 34 c117 66 344 131 530 152 90 10 294 4 400 -11z m-6339 -149
c28 -30 88 -100 134 -155 46 -55 111 -131 144 -170 100 -114 97 -105 34 -105
l-54 0 -197 221 c-108 122 -197 225 -197 229 0 13 64 48 75 41 6 -3 33 -31 61
-61z m700 18 c42 -44 179 -200 330 -377 31 -35 39 -70 35 -140 -1 -24 -1 -24
-22 -5 -12 10 -101 109 -198 219 -97 110 -195 220 -218 245 -24 25 -43 50 -43
57 0 10 47 52 60 53 3 0 28 -24 56 -52z m-980 21 c3 -6 17 -9 30 -6 20 4 22 2
13 -16 -16 -28 -485 -547 -495 -547 -2 0 -4 29 -4 64 l0 65 103 108 c56 59
149 161 206 226 98 111 129 134 147 106z m704 -3 l45 -13 -100 -104 c-54 -57
-102 -108 -105 -112 -4 -4 -19 10 -35 33 -15 22 -26 42 -24 45 54 57 164 165
168 165 3 0 26 -6 51 -14z m-1018 -93 c22 -20 23 -56 3 -73 -11 -10 -19 -10
-27 -2 -6 6 -16 8 -22 6 -16 -6 -66 13 -66 24 0 5 9 21 21 36 24 30 63 34 91
9z m1635 -5 c26 -24 28 -42 11 -81 -14 -30 -52 -45 -75 -31 -8 5 -24 26 -35
46 l-22 38 24 25 c29 31 66 32 97 3z m5101 -63 c28 -9 65 -27 82 -42 34 -28
74 -100 83 -151 12 -63 -26 -159 -64 -159 -8 0 -45 -8 -81 -17 -63 -18 -69
-18 -164 0 -55 10 -104 18 -111 18 -15 -2 -53 86 -53 124 0 101 67 198 158
226 61 19 88 19 150 1z m-5544 -41 c3 -8 2 -12 -4 -9 -6 3 -10 10 -10 16 0 14
7 11 14 -7z m-684 -9 c0 13 28 -15 33 -34 3 -13 -1 -17 -17 -15 -12 1 -25 3
-30 3 -4 1 -6 8 -3 16 4 8 2 17 -2 20 -5 3 -12 -2 -15 -11 -3 -8 -11 -12 -17
-9 -7 5 -4 13 7 26 13 14 20 16 31 8 7 -6 13 -8 13 -4z m5854 -43 c-76 -148
-18 -336 130 -418 181 -100 398 -39 483 134 23 47 28 70 28 132 0 64 -5 85
-32 143 -18 37 -28 67 -23 67 6 0 58 -19 117 -42 116 -46 273 -136 391 -224
68 -52 87 -74 60 -74 -6 0 -9 -3 -6 -6 7 -6 -35 -45 -112 -105 -68 -53 -90
-65 -186 -102 -49 -19 -88 -39 -87 -44 1 -5 -11 -10 -27 -11 -16 -1 -39 -6
-52 -11 -22 -9 -22 -10 7 -11 25 -1 27 -3 10 -9 -11 -5 -30 -4 -42 2 -17 8
-29 5 -55 -12 -29 -20 -30 -22 -8 -16 23 6 24 5 5 -7 -11 -7 -41 -13 -67 -14
-98 -3 -105 -4 -83 -15 17 -7 17 -8 2 -6 -33 4 -19 22 23 30 64 13 43 17 -30
7 -36 -5 -90 -10 -120 -11 l-55 -2 45 -7 45 -6 -36 -8 c-151 -33 -481 72 -658
208 -90 69 -86 62 -89 173 l-4 100 64 43 c78 52 221 122 313 154 39 13 71 22
73 21 1 -1 -9 -25 -24 -53z m-5124 24 c0 -3 -4 -8 -10 -11 -5 -3 -10 -1 -10 4
0 6 5 11 10 11 6 0 10 -2 10 -4z m-578 -190 c-11 -24 -24 -36 -45 -40 -44 -9
-87 -7 -87 3 0 5 23 35 51 65 l51 56 23 -24 c22 -24 22 -26 7 -60z m6168 -116
c0 -5 -5 -10 -11 -10 -5 0 -7 5 -4 10 3 6 8 10 11 10 2 0 4 -4 4 -10z m-5752
-181 l42 -52 -19 -31 c-37 -58 -104 -61 -139 -4 l-20 32 41 53 c23 29 44 53
48 53 3 0 24 -23 47 -51z m-910 -10 c28 -12 52 -24 52 -28 -1 -3 -14 -21 -30
-40 l-29 -34 -63 19 c-42 13 -92 19 -150 19 -83 -1 -88 0 -88 20 0 12 6 29 13
38 29 41 203 45 295 6z m577 -26 c57 -29 131 -97 168 -154 26 -39 47 -118 47
-177 l0 -54 -52 7 c-67 9 -68 10 -68 47 0 77 -87 182 -177 212 -113 39 -239 1
-284 -86 -10 -21 -19 -40 -19 -43 0 -13 44 -3 89 20 95 50 195 39 263 -29 26
-27 46 -95 33 -116 -10 -16 -28 -12 -21 5 7 19 -3 47 -15 39 -5 -3 -6 2 -3 10
3 9 10 13 15 10 5 -3 9 0 9 5 0 14 -6 14 -32 0 -18 -9 -20 -9 -15 4 4 12 2 14
-10 10 -12 -5 -15 -2 -10 9 4 11 -1 16 -16 16 -12 0 -46 6 -74 12 -49 12 -56
11 -105 -14 -33 -16 -64 -41 -81 -66 -21 -30 -35 -40 -55 -40 -41 0 -98 18
-123 39 -60 48 14 224 126 301 81 56 137 71 250 67 89 -3 107 -7 160 -34z
m915 -27 l0 -65 -47 -6 c-188 -24 -317 -108 -436 -284 -21 -31 -42 -60 -47
-65 -13 -13 -91 35 -86 53 3 9 8 30 12 46 11 49 62 143 101 185 47 52 167 133
238 159 66 25 138 38 213 40 l52 1 0 -64z m5357 -72 c-3 -3 -12 -4 -19 -1 -8
3 -5 6 6 6 11 1 17 -2 13 -5z m-6936 -45 c19 -7 35 -13 36 -14 8 -5 -37 -150
-45 -148 -6 1 -42 18 -81 37 -39 19 -73 30 -77 25 -3 -5 0 -9 6 -9 7 0 10 -6
7 -14 -3 -8 1 -17 9 -20 8 -3 14 -12 14 -19 0 -19 35 -49 45 -40 4 5 5 3 1 -4
-3 -7 2 -14 14 -18 11 -3 25 -15 30 -26 21 -37 -75 44 -110 94 -34 49 -72 145
-64 159 8 12 177 9 215 -3z m-5 -223 c1 -25 -2 -49 -7 -52 -5 -3 -6 1 -3 9 3
8 1 18 -5 21 -7 5 -7 13 2 27 10 17 9 23 -13 40 l-25 19 25 -9 c21 -7 25 -15
26 -55z m6094 -37 c276 -30 584 -125 826 -253 161 -86 295 -196 383 -315 57
-77 124 -211 119 -238 -6 -31 -94 -44 -278 -40 -312 8 -430 58 -862 369 -114
81 -231 162 -260 179 -131 77 -158 100 -158 130 0 16 3 29 8 29 13 0 156 -56
242 -95 150 -69 321 -177 384 -244 32 -34 57 -39 76 -16 10 12 7 23 -13 60
l-26 45 27 6 c53 11 80 26 86 47 3 11 2 25 -1 30 -11 18 -89 46 -308 111 -121
36 -276 85 -345 109 -121 43 -125 46 -128 76 l-3 30 68 -5 c37 -2 111 -9 163
-15z m-5220 -81 c103 -30 225 -138 279 -246 76 -152 82 -354 14 -492 -38 -76
-151 -186 -243 -237 -98 -54 -175 -73 -295 -73 -158 0 -251 32 -382 132 -154
117 -235 247 -281 448 -32 136 -35 144 -81 187 l-46 42 21 28 c42 56 139 35
184 -39 22 -36 28 -59 54 -193 20 -106 52 -179 108 -253 119 -154 314 -234
495 -203 156 27 294 127 357 260 28 60 31 75 31 166 0 93 -2 105 -33 167 -37
76 -122 167 -185 199 -23 13 -67 30 -97 39 -49 16 -55 21 -58 48 -2 23 2 31
15 35 24 6 99 -2 143 -15z m-113 -161 c65 -17 110 -47 146 -98 34 -47 49 -93
41 -126 -5 -19 -9 -21 -20 -12 -8 6 -14 21 -15 33 0 11 -3 16 -5 9 -7 -15 -44
15 -38 31 2 6 -16 23 -41 39 -53 31 -63 34 -44 10 9 -10 0 -7 -23 8 -21 13
-38 28 -38 33 0 5 9 1 20 -9 11 -10 23 -16 26 -13 3 3 -7 16 -23 28 l-28 22
30 -7 30 -6 -25 15 c-14 8 -28 12 -31 10 -4 -2 -5 4 -3 13 5 16 -3 18 -68 16
-51 -1 -65 1 -48 7 38 13 100 11 157 -3z m758 -21 c18 -8 41 -26 51 -41 52
-79 -54 -429 -193 -637 -57 -85 -171 -201 -224 -229 -21 -10 -40 -23 -44 -29
-3 -5 -11 -10 -17 -10 -6 0 9 21 33 48 61 65 104 135 145 236 51 125 66 215
66 395 -1 171 10 217 57 250 23 16 37 22 84 30 4 0 23 -5 42 -13z m5943 -42
c-26 -24 -53 -44 -60 -44 -7 0 12 22 42 49 68 60 83 56 18 -5z m-7124 -3 c10
-11 16 -28 14 -38 -3 -15 -15 -19 -66 -21 -57 -3 -62 -1 -62 18 0 12 5 30 10
41 15 26 80 26 104 0z m5631 -75 c33 -22 130 -92 215 -156 288 -216 426 -300
588 -355 156 -53 201 -60 390 -59 191 0 177 6 151 -63 -11 -30 -68 -38 -274
-37 -193 0 -275 15 -427 79 -83 35 -220 112 -277 156 -14 11 -57 43 -96 71
-67 50 -243 197 -332 279 -41 37 -43 42 -43 95 0 63 -3 64 105 -10z m-5287
-45 c21 -11 44 -27 51 -35 12 -14 9 -14 -30 0 -55 21 -203 24 -239 5 l-25 -13
20 21 c49 51 147 61 223 22z m5287 -342 c106 -107 218 -202 296 -252 76 -47
80 -57 26 -57 -63 0 -118 40 -284 206 -109 109 -143 149 -143 168 0 14 3 26 8
26 4 0 48 -41 97 -91z m-13 -310 c-41 -15 -92 40 -92 98 0 27 3 25 54 -32 44
-49 51 -61 38 -66z m700 -128 c132 -34 232 -44 362 -37 67 4 136 9 155 13 26
4 32 2 29 -8 -7 -20 -148 -47 -254 -48 -123 -1 -233 14 -391 55 -137 35 -173
40 -201 25 -9 -4 -33 -11 -52 -14 -32 -6 -33 -5 -16 8 10 8 42 22 70 31 28 9
59 23 70 30 16 11 29 9 85 -11 36 -13 101 -33 143 -44z m-531 17 c40 -20 89
-42 107 -49 24 -9 30 -14 20 -20 -10 -7 -8 -9 5 -9 28 0 11 -17 -23 -24 -43
-8 -116 19 -169 63 -25 20 -49 39 -55 44 -7 5 -4 12 9 22 10 9 22 14 25 13 3
-2 40 -20 81 -40z m-2701 -9 c188 -29 379 -29 536 -1 118 21 142 22 942 22
l820 0 -4 -117 c-9 -234 -11 -256 -37 -315 -33 -75 -104 -149 -175 -184 -50
-25 -71 -29 -169 -32 l-112 -4 -3 162 -3 162 -28 24 -28 24 -330 0 -330 0 -24
-25 c-22 -21 -25 -33 -25 -93 0 -38 -3 -110 -6 -160 l-7 -92 -1216 0 -1216 0
-56 23 c-104 43 -165 105 -202 205 -18 48 -22 85 -25 240 l-4 182 784 0 c742
0 790 -1 918 -21z m-1894 -143 l-7 -45 -91 -45 c-50 -25 -124 -52 -167 -61
-103 -22 -108 -24 -92 -34 9 -6 3 -10 -18 -14 -71 -15 -97 -99 -45 -148 22
-21 35 -24 92 -23 93 1 227 45 326 105 27 17 52 27 57 22 4 -4 10 -24 14 -44
6 -32 3 -38 -29 -63 -113 -86 -352 -134 -483 -97 -57 16 -136 71 -147 103 -16
46 9 130 54 181 46 52 86 70 204 92 106 20 169 41 261 88 39 19 72 33 74 31 2
-1 0 -23 -3 -48z m4929 -40 l60 -24 -29 -13 c-24 -11 -38 -11 -94 4 -75 20
-95 33 -72 47 24 16 71 11 135 -14z m278 -56 c31 0 38 -3 35 -17 -5 -29 -48
-43 -107 -38 -66 6 -76 14 -55 44 14 19 23 22 53 17 20 -3 53 -6 74 -6z
m-1623 -255 l0 -135 -280 0 -280 0 0 135 0 135 280 0 280 0 0 -135z m-4560 54
c0 -13 16 -30 51 -52 29 -19 48 -16 95 20 36 26 44 22 44 -23 0 -26 -6 -34
-32 -47 -18 -9 -45 -19 -60 -22 -16 -4 -25 -12 -22 -17 16 -25 -57 26 -94 66
-46 50 -52 62 -23 46 22 -12 36 2 27 25 -3 8 -1 15 4 15 6 0 10 -5 10 -11z
m1147 -303 c64 -45 199 -92 253 -87 23 2 22 0 -9 -19 -91 -57 -230 -103 -393
-130 -139 -23 -466 4 -488 40 -4 6 -11 10 -16 8 -5 -2 -10 1 -11 7 -2 5 13 8
32 6 19 -1 35 2 35 8 0 5 10 11 23 13 12 2 -12 10 -53 18 -41 7 -120 29 -175
48 -55 19 -107 34 -117 34 -9 0 -24 9 -35 20 -18 21 -17 21 1 14 115 -42 522
-46 686 -7 47 11 110 29 140 39 74 26 74 27 127 -12z m2936 -70 c134 -59 266
-168 337 -277 61 -95 85 -184 85 -319 -1 -103 -4 -124 -32 -203 -44 -125 -148
-287 -174 -271 -5 3 -9 -3 -9 -13 0 -10 -13 -33 -29 -51 -31 -33 -41 -39 -41
-22 0 6 6 10 14 10 8 0 18 9 21 20 3 11 9 20 13 20 4 0 7 13 8 30 l1 29 -50
-44 c-27 -25 -54 -45 -59 -45 -6 0 -7 -7 -4 -16 3 -8 2 -12 -3 -9 -14 8 -61
-16 -61 -32 0 -15 26 -18 34 -4 4 5 1 11 -6 13 -7 3 -5 7 6 11 9 4 15 3 11 -2
-3 -5 0 -11 7 -13 7 -3 -2 -11 -19 -18 -17 -8 -29 -18 -27 -22 3 -4 14 -3 25
2 13 7 19 7 19 0 0 -5 -5 -10 -11 -10 -6 0 -25 -6 -42 -14 -69 -32 -107 -45
-107 -37 0 5 7 14 15 21 8 6 26 33 41 58 15 26 69 101 120 167 141 185 186
272 203 398 18 128 -21 263 -99 345 -17 17 -29 36 -25 41 3 5 0 13 -6 17 -8 4
-9 3 -5 -4 4 -7 3 -12 -3 -12 -5 0 -14 6 -18 13 -10 16 -110 73 -183 103 -47
20 -50 23 -23 21 17 -1 29 -5 26 -9 -4 -7 37 -13 60 -9 4 0 6 -4 5 -11 -2 -7
13 -12 36 -14 21 -2 44 -8 50 -15 8 -9 8 -10 -1 -5 -7 4 -13 2 -13 -4 0 -6 8
-9 18 -6 11 4 33 -10 65 -40 26 -26 50 -44 53 -42 10 10 -127 128 -188 162
-103 57 -235 94 -363 100 -5 1 -11 9 -13 18 -3 14 7 18 65 21 129 8 217 -1
276 -27z m412 4 c61 -49 143 -158 190 -255 67 -137 79 -195 79 -365 0 -132 -2
-152 -28 -225 -23 -68 -80 -175 -92 -175 -2 0 1 12 6 26 11 28 3 94 -10 94 -5
0 -11 -9 -15 -19 -17 -54 -114 -136 -99 -83 2 9 -1 7 -7 -5 -7 -13 -16 -23
-21 -23 -4 0 6 27 22 61 68 133 96 275 85 428 -4 58 -7 119 -7 134 -1 20 -3
24 -9 15 -7 -10 -9 -10 -9 3 0 8 -9 35 -21 58 -16 34 -18 46 -8 55 9 8 10 7 6
-7 -4 -11 -3 -16 3 -12 6 3 7 18 4 32 -5 17 -3 24 4 19 6 -4 8 2 5 14 -3 11
-9 20 -13 20 -5 0 -12 9 -15 21 -4 12 -12 18 -21 15 -10 -4 -14 2 -14 19 0 13
-5 27 -12 31 -7 4 -8 3 -4 -4 4 -7 5 -12 1 -12 -3 0 -10 12 -16 27 -8 22 -12
25 -21 13 -8 -13 -9 -12 -5 1 6 20 -30 55 -92 92 l-45 26 60 4 c32 2 64 4 70
5 6 1 28 -12 49 -28z m-3029 5 c-24 -18 -28 -18 -49 -2 -15 10 -11 12 25 14
40 3 42 2 24 -12z m698 3 c-4 -7 -18 -30 -30 -50 -62 -99 -83 -262 -48 -379
37 -124 117 -237 216 -304 l49 -32 -29 -24 c-15 -13 -45 -33 -65 -44 -36 -19
-38 -19 -69 -2 -55 29 -137 107 -185 175 -125 174 -155 401 -78 571 44 94 54
101 157 101 69 0 87 -3 82 -12z m256 -35 c-102 -116 -122 -242 -58 -370 32
-64 122 -144 189 -167 29 -10 56 -20 58 -22 5 -4 -31 -36 -88 -76 l-44 -31
-46 24 c-73 39 -167 133 -201 203 -43 88 -55 161 -42 245 15 87 31 126 82 189
l40 52 76 0 76 0 -42 -47z m666 32 c7 -16 -20 -239 -32 -268 -5 -14 -3 -18 12
-15 11 2 18 -2 17 -9 -2 -7 0 -13 5 -13 14 1 42 27 42 40 0 7 2 11 5 8 15 -15
-42 -204 -90 -298 -29 -57 -38 -64 -25 -20 5 18 5 32 -1 36 -5 3 -8 2 -7 -3 1
-4 -4 -19 -11 -31 -7 -13 -10 -34 -7 -47 3 -13 2 -27 -4 -30 -6 -4 -7 1 -3 12
13 36 -12 1 -29 -40 -9 -23 -21 -41 -26 -40 -6 1 -17 -13 -26 -32 -10 -19 -21
-35 -25 -35 -5 0 -11 -10 -14 -21 -4 -14 -11 -20 -21 -16 -8 3 -18 1 -22 -5
-4 -7 -3 -8 4 -4 31 19 6 -14 -40 -56 -63 -56 -150 -119 -125 -91 29 34 19 35
-27 3 -25 -16 -48 -30 -52 -30 -4 0 -16 -7 -26 -17 -10 -9 -21 -13 -26 -8 -4
4 -1 10 6 12 18 7 15 21 -5 26 -10 3 -4 5 12 4 24 -2 29 2 27 16 -2 9 2 17 8
17 5 0 10 -5 10 -11 0 -5 5 -7 11 -3 8 5 7 9 -1 14 -17 10 35 60 61 60 11 0
19 5 19 10 0 18 -21 10 -92 -36 -134 -86 -247 -137 -413 -185 -174 -51 -270
-54 -415 -15 -112 30 -112 33 -6 41 183 13 408 80 606 180 244 123 485 355
571 549 31 70 48 153 55 262 l7 104 44 0 c29 0 45 -5 49 -15z m-2835 -12 c13
-16 12 -17 -3 -4 -10 7 -18 15 -18 17 0 8 8 3 21 -13z m1407 -3 c-21 -13 -58
-72 -58 -93 0 -9 6 -22 13 -29 7 -7 21 -26 31 -42 l19 -30 -44 -37 c-60 -51
-182 -121 -216 -122 -16 -1 -33 -8 -38 -15 -16 -20 -149 -62 -157 -49 -9 15 0
27 20 26 14 0 13 -2 -3 -9 -31 -13 5 -12 46 1 48 16 58 29 15 19 -43 -10 -47
-3 -7 11 21 7 32 19 36 39 5 21 11 27 25 23 14 -4 22 2 30 22 14 38 13 41 -10
15 -11 -13 -23 -20 -26 -17 -4 3 -16 1 -28 -5 -11 -7 -41 -13 -66 -15 -25 -1
-74 -9 -110 -17 -58 -13 -61 -14 -26 -15 52 -1 43 -7 -24 -15 -41 -5 -51 -4
-40 4 11 9 6 9 -20 4 -54 -11 -207 -5 -294 11 -43 8 -120 33 -170 54 -50 22
-101 42 -113 46 -11 3 -27 12 -33 20 -15 18 -17 19 55 -4 117 -37 267 -54 425
-48 242 9 375 49 612 187 84 49 158 89 163 89 6 0 2 -4 -7 -9z m-1334 -42 c-6
-9 -39 6 -49 21 -3 5 8 4 24 -2 17 -6 28 -15 25 -19z m50 -23 c23 -17 40 -20
31 -5 -4 6 1 7 11 3 15 -5 15 -7 0 -15 -10 -6 -28 -2 -53 11 -21 11 -31 20
-23 20 8 0 24 -6 34 -14z m91 -15 c3 -5 1 -10 -4 -10 -6 0 -11 5 -11 10 0 6 2
10 4 10 3 0 8 -4 11 -10z m2103 -48 c36 -11 98 -78 110 -120 7 -22 12 -67 12
-100 0 -55 -3 -63 -25 -78 -49 -32 -138 8 -186 85 -46 71 -38 176 15 213 13 9
42 9 74 0z m1927 -52 c3 -5 1 -10 -4 -10 -6 0 -11 5 -11 10 0 6 2 10 4 10 3 0
8 -4 11 -10z m58 -46 c-7 -20 -10 -18 -15 11 -4 20 -2 23 8 14 7 -6 10 -17 7
-25z m-32 -1 c13 -16 12 -17 -3 -4 -10 7 -18 15 -18 17 0 8 8 3 21 -13z
m-4026 -51 c-3 -3 -11 0 -18 7 -9 10 -8 11 6 5 10 -3 15 -9 12 -12z m55 -46
c0 -4 -9 -1 -19 6 -11 7 -17 16 -15 20 5 8 34 -15 34 -26z m637 -12 c-3 -3
-12 -4 -19 -1 -8 3 -5 6 6 6 11 1 17 -2 13 -5z m493 -23 c-13 -25 -13 -102 0
-137 13 -34 0 -50 -59 -76 -177 -75 -455 -88 -660 -31 -123 35 -118 38 58 39
146 1 178 4 266 28 109 29 249 93 335 155 62 45 75 49 60 22z m-683 -7 c-3 -3
-12 -4 -19 -1 -8 3 -5 6 6 6 11 1 17 -2 13 -5z m203 -58 c0 -2 -15 -6 -34 -8
-19 -2 -32 0 -30 4 5 8 64 12 64 4z m-97 -13 c-7 -2 -19 -2 -25 0 -7 3 -2 5
12 5 14 0 19 -2 13 -5z m2745 -175 c2 -5 8 -6 13 -2 5 3 9 1 9 -4 0 -6 13 -24
29 -41 24 -26 36 -31 76 -31 38 0 52 5 76 29 16 16 29 37 29 45 0 9 1 16 3 16
1 0 40 7 86 14 l84 14 -6 -53 c-10 -95 -78 -189 -163 -226 -63 -26 -169 -26
-228 1 -87 41 -143 123 -153 223 l-6 54 74 -15 c41 -9 76 -20 77 -24z m-2064
-114 l30 -26 -24 -18 c-13 -10 -38 -22 -57 -28 l-33 -10 0 48 c0 66 33 79 84
34z m-292 -119 c7 -7 8 -2 4 15 l-7 25 21 -25 22 -25 -28 -12 c-33 -14 -81
-17 -87 -5 -2 4 -7 19 -11 35 -6 25 -4 27 21 26 17 -1 21 -3 11 -6 -17 -4 -24
-24 -12 -35 3 -3 15 -3 27 0 20 5 20 6 1 13 -16 7 -17 8 -1 8 9 1 18 9 18 19
1 14 2 13 6 -3 3 -11 10 -24 15 -30z m2988 -204 c-5 -11 -15 -23 -21 -27 -6
-3 -3 5 6 20 20 30 30 35 15 7z m-629 -38 c32 -15 59 -31 59 -37 0 -5 -3 -7
-6 -3 -4 3 -13 0 -21 -8 -8 -8 -40 -22 -71 -31 -43 -12 -70 -28 -107 -65 -54
-53 -83 -61 -103 -29 -7 11 -21 20 -33 20 -11 0 -17 4 -14 10 3 5 19 7 34 4
50 -10 96 12 127 62 16 25 34 42 41 40 7 -3 15 -1 18 4 3 4 0 10 -6 12 -9 3
-9 9 0 26 6 12 14 22 17 22 3 0 33 -12 65 -27z m559 -57 c0 -2 -8 -10 -17 -17
-16 -13 -17 -12 -4 4 13 16 21 21 21 13z m-212 -43 c-6 -7 -12 -13 -13 -13 -2
0 -5 6 -8 13 -3 7 3 13 14 13 13 0 15 -3 7 -13z"/>
<path d="M5317 8902 c-39 -43 -8 -112 50 -112 53 0 84 78 45 113 -25 22 -75
21 -95 -1z"/>
<path d="M5865 8766 c-149 -65 -102 -288 61 -288 60 0 96 16 124 54 62 84 34
184 -65 229 -47 22 -79 23 -120 5z"/>
<path d="M5200 8745 c0 -10 5 -13 12 -9 6 4 8 3 5 -3 -4 -6 -2 -25 4 -41 11
-31 11 -31 32 -12 20 19 20 20 1 41 -29 32 -54 43 -54 24z"/>
<path d="M5283 8673 c-18 -7 -16 -23 2 -23 8 0 15 7 15 15 0 8 -1 15 -2 14 -2
0 -9 -3 -15 -6z"/>
<path d="M5251 8653 c0 -12 -4 -30 -7 -40 -5 -17 -5 -17 6 0 6 10 9 28 7 40
-4 22 -4 22 -6 0z"/>
<path d="M5816 8155 c4 -8 8 -15 10 -15 2 0 4 7 4 15 0 8 -4 15 -10 15 -5 0
-7 -7 -4 -15z"/>
<path d="M5801 8130 c0 -3 6 -25 13 -50 8 -25 15 -36 15 -25 0 17 -26 88 -28
75z"/>
<path d="M5832 8110 c0 -14 2 -19 5 -12 2 6 2 18 0 25 -3 6 -5 1 -5 -13z"/>
<path d="M5480 8023 c-70 -59 -23 -183 70 -183 30 0 77 41 86 75 7 29 -11 87
-34 108 -9 8 -35 17 -56 19 -30 3 -45 -1 -66 -19z"/>
<path d="M5830 8010 c0 -11 4 -20 9 -20 5 0 7 9 4 20 -3 11 -7 20 -9 20 -2 0
-4 -9 -4 -20z"/>
<path d="M3012 8189 c6 -16 12 -28 14 -26 5 5 -13 57 -20 57 -3 0 0 -14 6 -31z"/>
<path d="M3216 8205 c4 -8 11 -15 16 -15 6 0 5 6 -2 15 -7 8 -14 15 -16 15 -2
0 -1 -7 2 -15z"/>
<path d="M3205 8171 c-3 -5 -2 -12 3 -15 5 -3 9 1 9 9 0 17 -3 19 -12 6z"/>
<path d="M3070 8139 c0 -5 5 -7 10 -4 6 3 10 8 10 11 0 2 -4 4 -10 4 -5 0 -10
-5 -10 -11z"/>
<path d="M3035 7510 c4 -14 7 -34 6 -44 0 -12 3 -16 10 -9 6 6 4 22 -6 44 -10
21 -14 25 -10 9z"/>
<path d="M3060 7388 c0 -9 5 -20 10 -23 13 -8 13 5 0 25 -8 13 -10 13 -10 -2z"/>
<path d="M4671 7594 c0 -11 3 -14 6 -6 3 7 2 16 -1 19 -3 4 -6 -2 -5 -13z"/>
<path d="M4186 7494 c-4 -10 -1 -14 6 -12 15 5 23 28 10 28 -5 0 -13 -7 -16
-16z"/>
<path d="M1801 6780 c0 -8 4 -24 9 -35 5 -13 9 -14 9 -5 0 8 -4 24 -9 35 -5
13 -9 14 -9 5z"/>
<path d="M1847 6621 c-3 -11 1 -22 8 -24 8 -4 10 3 7 19 -5 29 -8 30 -15 5z"/>
<path d="M1870 6553 c14 -30 27 -36 34 -17 3 9 2 12 -5 9 -6 -4 -17 1 -25 11
-14 18 -14 18 -4 -3z"/>
<path d="M1940 6484 c0 -13 18 -39 24 -34 2 3 -2 14 -10 24 -8 11 -14 16 -14
10z"/>
<path d="M2512 7244 c-12 -8 -27 -25 -33 -36 -16 -29 11 -48 66 -48 80 0 97
41 33 80 -40 24 -38 24 -66 4z"/>
<path d="M3828 6712 l-347 -2 -20 -26 c-28 -35 -26 -76 4 -112 43 -52 55 -53
396 -50 309 3 314 3 346 26 20 14 37 38 44 63 11 35 10 43 -7 66 -11 15 -31
29 -45 32 -13 4 -180 5 -371 3z"/>
<path d="M5023 6981 c-67 -32 -113 -87 -133 -161 -47 -169 81 -340 254 -340
233 1 353 281 193 448 -49 51 -102 75 -182 79 -62 4 -77 1 -132 -26z m194 -77
c38 -19 78 -66 88 -104 8 -33 -31 -74 -99 -106 -77 -36 -113 -31 -176 25 -19
17 -38 31 -42 31 -15 0 -8 44 13 86 35 74 136 105 216 68z"/>
<path d="M5734 6966 c-17 -8 -34 -21 -38 -31 -3 -9 -6 -91 -6 -181 0 -151 2
-166 20 -184 20 -20 33 -20 564 -20 l545 0 20 26 c19 25 21 40 21 186 l0 160
-29 29 -29 29 -519 0 c-412 -1 -524 -4 -549 -14z m916 -148 c30 -33 27 -91 -6
-117 -36 -28 -50 -26 -85 8 -51 52 -26 131 41 131 17 0 38 -9 50 -22z m-698
-5 c27 -25 22 -33 -21 -33 -48 0 -71 8 -71 25 0 28 64 33 92 8z m350 0 c34
-31 28 -32 -85 -24 -15 1 -16 5 -7 21 13 25 66 27 92 3z"/>
<path d="M5000 6124 c-94 -12 -248 -47 -327 -75 -447 -158 -777 -537 -879
-1011 -28 -128 -26 -391 4 -526 115 -517 531 -924 1062 -1038 41 -8 143 -18
225 -21 323 -12 623 76 877 257 271 193 470 502 535 828 23 119 23 365 0 484
-65 328 -256 630 -526 834 -153 115 -381 215 -572 250 -83 15 -332 26 -399 18z
m455 -147 c222 -60 402 -159 556 -304 90 -85 97 -98 67 -123 -59 -49 -61 -49
-135 24 -116 113 -259 203 -409 256 -79 28 -256 65 -344 72 -34 3 -35 4 -33
41 2 25 -2 37 -11 37 -47 0 -232 -23 -290 -36 -350 -77 -681 -357 -834 -705
-55 -125 -91 -263 -99 -376 l-6 -92 49 -3 49 -3 7 -75 c44 -437 345 -800 778
-938 409 -130 849 -22 1155 283 97 97 165 191 212 291 l34 76 29 -30 c16 -17
38 -33 49 -37 12 -3 21 -11 21 -17 0 -20 -70 -137 -88 -147 -9 -6 -14 -11 -9
-11 4 0 0 -12 -9 -26 -13 -19 -19 -22 -26 -12 -5 9 -7 5 -6 -12 2 -16 -2 -24
-10 -22 -8 1 -11 -2 -8 -7 8 -12 -72 -108 -145 -176 -160 -150 -346 -246 -584
-301 -104 -24 -141 -28 -280 -29 -174 0 -258 13 -416 65 -329 108 -621 383
-748 702 -128 323 -120 627 25 945 60 131 195 316 295 403 146 127 294 212
459 264 149 48 218 56 425 51 162 -3 203 -7 280 -28z m-127 -208 c186 -27 389
-129 539 -272 l76 -73 -27 -30 -27 -29 -71 69 c-122 118 -271 202 -427 243
-396 103 -829 -55 -1051 -382 -59 -88 -81 -131 -112 -225 -31 -92 -46 -157
-54 -235 -4 -33 -10 -62 -14 -65 -4 -3 -12 -25 -18 -50 -10 -39 -11 -28 -7 80
4 129 22 239 51 306 74 176 137 275 246 383 130 129 262 207 433 255 156 44
278 51 463 25z m-270 -185 c23 -16 30 -58 12 -69 -6 -4 -52 -15 -102 -25 -91
-19 -219 -73 -295 -124 -21 -15 -67 -54 -102 -89 -103 -101 -171 -212 -210
-345 -24 -78 -38 -91 -77 -74 -32 15 -31 46 5 150 105 302 392 543 696 585 17
2 35 5 40 6 6 0 21 -6 33 -15z m988 -320 c26 -43 27 -52 33 -262 7 -202 2
-348 -15 -449 l-7 -43 33 0 c21 0 31 -4 28 -12 -3 -7 -13 -37 -23 -65 -11 -29
-23 -53 -27 -53 -5 0 -23 7 -41 16 -93 48 -178 152 -218 271 -20 57 -24 89
-24 198 0 152 19 224 87 326 40 60 123 133 139 123 5 -3 21 -25 35 -50z m-496
-11 c51 -32 81 -69 96 -119 50 -172 -131 -312 -282 -218 -144 89 -116 306 46
352 42 13 106 6 140 -15z m-1382 -574 c0 -65 -9 -73 -14 -12 -3 35 2 73 11 73
2 0 3 -27 3 -61z m180 24 c27 -37 1 -93 -45 -93 -24 0 -63 32 -63 51 0 15 21
52 34 62 16 10 59 -1 74 -20z m1105 -52 c99 -26 223 -84 266 -124 39 -37 91
-106 91 -120 0 -19 -143 19 -267 72 -115 50 -176 62 -305 61 -138 0 -226 -16
-404 -75 -139 -46 -327 -54 -458 -20 -32 8 -71 15 -89 16 -30 1 -31 1 -7 9 14
4 57 5 95 2 141 -9 288 23 490 108 164 69 246 87 406 89 75 1 128 -5 182 -18z
m-1273 -131 c0 -11 -2 -20 -4 -20 -2 0 -6 9 -9 20 -3 11 -1 20 4 20 5 0 9 -9
9 -20z m1300 -94 c162 -74 247 -99 341 -101 67 -2 96 -7 133 -25 25 -13 46
-25 46 -28 0 -10 -56 -80 -78 -96 -57 -43 -208 -10 -364 79 -165 94 -214 109
-348 109 -98 -1 -134 -6 -250 -37 -74 -19 -173 -41 -219 -48 -90 -13 -273 -7
-294 9 -7 5 -25 12 -40 16 -31 7 -27 26 6 27 21 0 21 1 2 9 -13 6 21 9 95 9
144 1 274 22 379 61 134 49 200 60 361 57 145 -3 145 -3 230 -41z m-1257 -11
c-3 -9 -8 -14 -10 -11 -3 3 -2 9 2 15 9 16 15 13 8 -4z m99 -52 c15 -4 15 -7
3 -19 -17 -17 -25 -18 -25 -3 0 7 -8 18 -17 26 -17 14 -17 14 2 8 11 -4 28 -9
37 -12z m1035 -91 c35 -11 96 -40 135 -65 118 -73 178 -99 262 -116 l79 -16
-74 -57 c-129 -97 -287 -167 -443 -193 -220 -37 -427 -4 -650 105 -83 40 -136
75 -136 89 0 4 22 9 49 10 104 3 206 22 319 58 107 35 127 38 227 37 148 0
194 -18 374 -143 72 -51 142 -33 83 21 -46 41 -165 116 -238 150 -67 31 -73
32 -199 32 -112 0 -146 -4 -240 -29 -98 -26 -126 -29 -265 -30 -90 0 -156 4
-157 10 -3 15 -46 27 -54 14 -4 -8 -13 -3 -24 15 -10 15 -15 29 -11 33 3 3 6
1 6 -5 0 -7 8 -12 18 -12 15 0 15 2 2 11 -11 8 -2 9 35 5 95 -11 321 12 424
43 109 32 172 49 216 55 61 9 202 -3 262 -22z"/>
<path d="M6125 4200 c-3 -5 -1 -10 4 -10 6 0 11 5 11 10 0 6 -2 10 -4 10 -3 0
-8 -4 -11 -10z"/>
<path d="M6110 4173 c0 -5 -23 -41 -51 -79 -27 -38 -36 -53 -18 -34 31 35 31
35 27 8 -4 -19 -1 -25 8 -21 9 3 12 16 8 39 -3 21 -1 34 6 34 12 0 34 50 25
58 -3 3 -5 1 -5 -5z"/>
<path d="M6116 4114 c-4 -9 -4 -19 -1 -22 2 -3 7 3 11 12 4 9 4 19 1 22 -2 3
-7 -3 -11 -12z"/>
<path d="M6104 4072 c4 -7 2 -19 -4 -27 -7 -9 -8 -15 -2 -15 16 0 24 32 11 44
-9 8 -10 8 -5 -2z"/>
<path d="M5935 3965 c-33 -30 -57 -55 -54 -55 3 0 17 9 30 21 13 11 29 24 34
27 13 9 60 62 54 62 -2 -1 -31 -25 -64 -55z"/>
<path d="M5935 3880 c-4 -6 -11 -7 -17 -4 -7 4 -8 2 -4 -5 6 -9 11 -9 22 0 14
11 18 19 10 19 -3 0 -8 -5 -11 -10z"/>
<path d="M5803 3863 c-10 -10 -14 -15 -9 -10 16 11 28 8 20 -5 -4 -7 -3 -9 1
-5 9 7 16 37 10 37 -1 0 -11 -8 -22 -17z"/>
<path d="M4408 4313 c7 -3 16 -2 19 1 4 3 -2 6 -13 5 -11 0 -14 -3 -6 -6z"/>
<path d="M5023 4000 c-49 -10 -80 -25 -110 -53 -28 -25 -31 -51 -5 -43 55 16
211 26 257 16 101 -22 145 -24 145 -7 0 60 -170 112 -287 87z"/>
<path d="M7959 5301 c-48 -49 -38 -125 21 -156 74 -38 150 9 150 94 0 21 -10
38 -35 60 -48 42 -95 42 -136 2z"/>
<path d="M7425 4924 c17 -13 46 -31 65 -40 19 -9 57 -27 84 -40 28 -13 56 -24
63 -24 7 0 13 -3 13 -8 0 -11 108 -39 195 -50 95 -12 110 -8 28 7 -147 28
-229 57 -383 133 -64 31 -85 39 -65 22z"/>
<path d="M8255 4769 c-10 -15 1 -23 20 -15 9 3 13 10 10 16 -8 13 -22 13 -30
-1z"/>
<path d="M8185 4011 c-65 -27 -80 -108 -30 -162 37 -39 143 -89 189 -89 62 0
196 61 196 90 0 5 -22 33 -49 62 -67 73 -140 108 -223 107 -35 0 -72 -4 -83
-8z"/>
<path d="M2178 4203 c6 -2 18 -2 25 0 6 3 1 5 -13 5 -14 0 -19 -2 -12 -5z"/>
<path d="M2210 4156 c0 -2 7 -7 16 -10 8 -3 12 -2 9 4 -6 10 -25 14 -25 6z"/>
<path d="M2362 4025 c0 -16 2 -22 5 -12 2 9 2 23 0 30 -3 6 -5 -1 -5 -18z"/>
<path d="M2528 2333 c6 -2 18 -2 25 0 6 3 1 5 -13 5 -14 0 -19 -2 -12 -5z"/>
<path d="M2848 2333 c6 -2 18 -2 25 0 6 3 1 5 -13 5 -14 0 -19 -2 -12 -5z"/>
<path d="M6040 1231 c-12 -18 -16 -32 -10 -36 5 -3 10 -2 10 3 0 6 7 9 16 8 9
0 19 6 22 14 5 13 3 13 -11 1 -13 -10 -17 -10 -17 -1 0 6 9 14 20 17 11 3 17
9 14 14 -9 16 -22 10 -44 -20z"/>
<path d="M4951 1944 c-6 -15 -9 -29 -6 -32 3 -3 5 0 5 7 0 7 4 10 9 7 5 -3 9
6 9 19 0 31 -2 31 -17 -1z"/>
<path d="M4820 1750 c-6 -11 -8 -20 -6 -20 3 0 10 9 16 20 6 11 8 20 6 20 -3
0 -10 -9 -16 -20z"/>
<path d="M4885 1749 c-4 -6 -5 -12 -2 -15 2 -3 7 2 10 11 7 17 1 20 -8 4z"/>
<path d="M4786 1713 c-6 -14 -5 -15 5 -6 7 7 10 15 7 18 -3 3 -9 -2 -12 -12z"/>
<path d="M4719 1650 c-13 -10 -19 -19 -12 -20 11 0 43 26 43 36 0 8 -8 4 -31
-16z"/>
<path d="M3375 2160 c-7 -11 22 -26 32 -16 4 3 -2 6 -13 6 -16 0 -17 2 -4 10
9 6 10 10 3 10 -6 0 -15 -5 -18 -10z"/>
<path d="M3388 2113 c7 -3 16 -2 19 1 4 3 -2 6 -13 5 -11 0 -14 -3 -6 -6z"/>
<path d="M3711 1684 c0 -11 3 -14 6 -6 3 7 2 16 -1 19 -3 4 -6 -2 -5 -13z"/>
</g>
</svg>
